<svg width="28" height="41" viewBox="0 0 28 41" fill="none" xmlns="http://www.w3.org/2000/svg">
<path d="M4.54702 24.9308C4.46616 24.8304 4.35202 24.7416 4.31238 24.6274C4.24368 24.4293 4.41596 24.2306 4.64321 24.2115C4.74097 24.2031 4.8398 24.2078 4.93862 24.2068C5.03639 24.2062 5.13416 24.2068 5.26522 24.2068C5.26522 24.1069 5.26522 24.0186 5.26522 23.9309C5.26522 19.5145 5.26522 15.0986 5.26522 10.6821C5.26522 10.2239 5.36616 10.1214 5.82064 10.1214C6.68575 10.1214 7.55033 10.1214 8.41544 10.1214H8.66593C8.66593 10.0252 8.66593 9.94966 8.66593 9.87356C8.66593 8.99471 8.6654 8.11534 8.66593 7.23649C8.66646 6.83432 8.77533 6.72757 9.18225 6.72599C9.48348 6.72493 9.78523 6.72599 10.1187 6.72599C10.1187 6.55952 10.1187 6.40837 10.1187 6.2567C10.1187 5.93328 10.1182 5.60985 10.1187 5.28643C10.1198 4.9017 10.235 4.78702 10.625 4.78544C11.0187 4.78385 11.4124 4.78544 11.8061 4.78544C11.8822 4.78544 11.9583 4.78544 12.0592 4.78544C12.0592 4.48632 12.0592 4.20729 12.0592 3.92878C12.0592 3.84423 12.054 3.75915 12.0645 3.67618C12.0894 3.47324 12.2442 3.33003 12.4265 3.33108C12.6237 3.33214 12.7737 3.47747 12.7822 3.69943C12.7922 3.97318 12.7864 4.24798 12.787 4.52226C12.787 4.59889 12.787 4.67499 12.787 4.77381C12.8773 4.77857 12.9518 4.78544 13.0264 4.78544C13.4481 4.78649 13.8703 4.78174 14.292 4.78755C14.6023 4.79178 14.7233 4.91597 14.7264 5.22724C14.7307 5.64209 14.7275 6.05694 14.7275 6.47179C14.7275 6.54736 14.7275 6.62241 14.7275 6.71225H15.4637C15.4637 6.48765 15.4637 6.27203 15.4637 6.05694C15.4637 5.76152 15.4589 5.46611 15.4668 5.17122C15.4732 4.9313 15.5926 4.81239 15.8288 4.79072C15.8986 4.78438 15.9694 4.78597 16.0397 4.78597C18.1636 4.78597 20.287 4.78597 22.4109 4.78597C22.8971 4.78597 22.9849 4.87528 22.9849 5.36676C22.9849 11.5478 22.9849 17.7293 22.9849 23.9103C22.9849 24.0001 22.9849 24.0905 22.9849 24.2073C23.1545 24.2073 23.3072 24.2115 23.4594 24.2062C23.6708 24.1983 23.8579 24.2332 23.933 24.4652C24.0064 24.6914 23.8621 24.8172 23.7025 24.9318H4.54596L4.54702 24.9308ZM22.2461 24.1951V5.52794H16.2025V14.4818H17.3794C17.4555 14.1431 17.558 14.0178 17.7556 14.0104C17.9581 14.003 18.0659 14.1272 18.1642 14.4871H18.8385C18.8496 14.4253 18.857 14.3703 18.8697 14.3164C18.9162 14.1235 19.07 13.9988 19.2428 14.011C19.4256 14.0242 19.5561 14.1558 19.5773 14.3571C19.5857 14.4406 19.5842 14.5257 19.5842 14.6097C19.5842 17.7177 19.5842 20.8256 19.5852 23.9336C19.5852 24.0213 19.5937 24.109 19.5979 24.1951H22.2455H22.2461ZM12.0466 24.1951V10.8629H6.00666V24.1904H7.69566C7.69566 24.0984 7.69566 24.0223 7.69566 23.9462C7.69566 23.5314 7.69195 23.1165 7.69724 22.7017C7.70094 22.392 7.82725 22.2673 8.13534 22.2657C8.73305 22.2625 9.33075 22.262 9.92792 22.2657C10.2281 22.2673 10.3618 22.4031 10.365 22.7075C10.3692 23.1292 10.3655 23.5509 10.3666 23.9732C10.3666 24.0472 10.3734 24.1212 10.3766 24.1951H12.046H12.0466ZM18.8411 24.1951V15.2381H12.8012V24.1951H18.8411ZM9.40421 10.123C10.3496 10.123 11.2697 10.123 12.1903 10.123C12.6596 10.123 12.7013 10.1542 12.8187 10.6002C12.8689 10.6044 12.9233 10.6118 12.9783 10.6124C13.2874 10.6155 13.5971 10.6092 13.9057 10.6224C14.1013 10.6309 14.2445 10.7809 14.2413 10.9617C14.2381 11.1509 14.1414 11.2835 13.9496 11.3216C13.8545 11.3406 13.7541 11.339 13.6563 11.3395C13.3714 11.3417 13.0871 11.3401 12.8081 11.3401V12.5534C13.1585 12.5534 13.4882 12.5492 13.818 12.5545C14.0833 12.5587 14.2482 12.7056 14.2445 12.9202C14.2408 13.1342 14.0733 13.2743 13.8074 13.2806C13.6737 13.2838 13.54 13.2811 13.4068 13.2811C13.206 13.2811 13.0052 13.2811 12.7875 13.2811C12.7875 13.641 12.7959 13.9708 12.7838 14.2995C12.778 14.4628 12.8372 14.4998 12.9899 14.4982C13.735 14.4913 14.4807 14.4871 15.2259 14.5003C15.4293 14.504 15.4668 14.4343 15.4663 14.2493C15.4605 12.0625 15.4626 9.87568 15.4621 7.68939C15.4621 7.6154 15.4557 7.54195 15.4526 7.47272H9.40368V10.1219L9.40421 10.123ZM10.858 5.52688V6.70802H13.9919V5.52688H10.858ZM8.66646 24.1962C8.66646 24.0128 8.66276 23.839 8.66752 23.6656C8.67492 23.3908 8.80492 23.2402 9.02846 23.2402C9.24778 23.2402 9.38677 23.3982 9.39364 23.6656C9.3984 23.8395 9.39469 24.0134 9.39469 24.1936H9.62458V23.0008H8.43974V24.2078C8.5169 24.2041 8.57821 24.201 8.66646 24.1962Z" fill="#D9D9D9"/>
<path d="M12.4202 9.39793C12.7574 9.39793 13.095 9.39793 13.4322 9.39793C13.5728 9.39793 13.7139 9.40374 13.8539 9.39528C14.0891 9.38101 14.2434 9.23304 14.2445 9.03275C14.2455 8.83035 14.0933 8.68819 13.8566 8.67181C13.7937 8.66758 13.7303 8.66916 13.6669 8.66916C12.9571 8.66916 12.2469 8.66811 11.5371 8.66916C11.3337 8.66916 11.1291 8.66546 10.9262 8.68185C10.7418 8.69664 10.634 8.81291 10.6186 8.9984C10.6022 9.19288 10.6958 9.32235 10.8839 9.37309C10.9569 9.39264 11.0366 9.39581 11.1127 9.39634C11.5487 9.39845 11.9842 9.3974 12.4202 9.3974V9.39793Z" fill="#D9D9D9"/>
<path d="M20.323 14.6065C20.323 14.5225 20.3166 14.4374 20.324 14.3539C20.3415 14.1589 20.4794 14.022 20.6612 14.0109C20.8345 14.0004 21.011 14.1304 21.0306 14.318C21.0507 14.5125 21.0507 14.7117 21.0316 14.9062C21.0131 15.0959 20.8419 15.2254 20.6665 15.218C20.4847 15.21 20.3436 15.0742 20.3251 14.8803C20.3166 14.7899 20.3235 14.698 20.323 14.6065Z" fill="#D9D9D9"/>
<path d="M19.5894 9.7705C19.5841 9.86298 19.5847 9.9618 19.5715 10.059C19.5456 10.2466 19.4187 10.3476 19.2438 10.3587C19.0668 10.3703 18.9114 10.2826 18.8881 10.0987C18.8607 9.87883 18.8607 9.65106 18.885 9.43122C18.9051 9.24731 19.0557 9.15324 19.2332 9.16011C19.4198 9.16751 19.5482 9.27373 19.5736 9.47085C19.5857 9.56809 19.5847 9.66692 19.59 9.7705H19.5894Z" fill="#D9D9D9"/>
<path d="M20.3261 19.4754C20.3261 19.3771 20.3171 19.2777 20.3282 19.181C20.3494 18.9944 20.4704 18.8887 20.6474 18.8713C20.8266 18.8539 20.9862 18.939 21.0116 19.1186C21.0438 19.3443 21.0443 19.5805 21.0163 19.8072C20.9941 19.9869 20.8398 20.081 20.6601 20.0683C20.473 20.0551 20.3483 19.9452 20.3272 19.7491C20.3177 19.6587 20.3256 19.5668 20.3256 19.4754C20.3256 19.4754 20.3261 19.4754 20.3267 19.4754H20.3261Z" fill="#D9D9D9"/>
<path d="M20.3261 9.74776C20.3261 9.65634 20.3177 9.56438 20.3277 9.47402C20.3483 9.29381 20.4921 9.1564 20.6649 9.15746C20.8451 9.15852 20.9957 9.24519 21.0184 9.42593C21.0459 9.64577 21.0454 9.8746 21.0179 10.0944C20.9952 10.2762 20.8409 10.3692 20.6633 10.3587C20.4778 10.3476 20.3489 10.2398 20.3277 10.0421C20.3177 9.94488 20.3261 9.84553 20.3261 9.74724V9.74776Z" fill="#D9D9D9"/>
<path d="M17.4143 9.76203C17.4143 9.66373 17.4047 9.56438 17.4164 9.46767C17.438 9.28112 17.5617 9.17648 17.7382 9.16063C17.9168 9.14477 18.0754 9.23144 18.0997 9.41271C18.1298 9.63889 18.1293 9.87459 18.1013 10.1008C18.0785 10.2836 17.9205 10.3719 17.7435 10.3581C17.558 10.3439 17.4322 10.2334 17.4137 10.0352C17.4053 9.94488 17.4121 9.85292 17.4121 9.7615C17.4127 9.7615 17.4132 9.7615 17.4137 9.7615L17.4143 9.76203Z" fill="#D9D9D9"/>
<path d="M20.3256 12.1803C20.3256 12.0889 20.3172 11.9969 20.3272 11.9071C20.3483 11.719 20.4799 11.5963 20.6607 11.5905C20.8567 11.5842 20.9984 11.6825 21.0243 11.8696C21.0523 12.0757 21.0502 12.2902 21.0269 12.4974C21.0052 12.6903 20.8356 12.8023 20.6475 12.7822C20.453 12.7616 20.3446 12.6464 20.3256 12.4535C20.3166 12.3632 20.324 12.2712 20.324 12.1803H20.3256Z" fill="#D9D9D9"/>
<path d="M20.325 7.32844C20.325 7.23702 20.3166 7.14506 20.3266 7.05522C20.3488 6.8618 20.4624 6.74924 20.6569 6.73655C20.8519 6.72387 20.9962 6.82322 21.0226 7.01136C21.0512 7.21746 21.0491 7.43202 21.0269 7.63918C21.0062 7.83155 20.8366 7.94676 20.6501 7.92773C20.4561 7.90818 20.3457 7.79403 20.3256 7.60166C20.3161 7.51129 20.324 7.41934 20.324 7.32844C20.324 7.32844 20.3245 7.32844 20.325 7.32844Z" fill="#D9D9D9"/>
<path d="M20.3235 17.0322C20.3235 16.9482 20.3172 16.8631 20.3246 16.7796C20.3415 16.5867 20.4482 16.4705 20.6422 16.4467C20.8298 16.424 21.0026 16.5344 21.0253 16.7257C21.0496 16.9329 21.0496 17.1469 21.0258 17.3541C21.0036 17.5454 20.8335 17.6558 20.6443 17.6352C20.4487 17.6146 20.343 17.4973 20.3251 17.3049C20.3166 17.2146 20.3235 17.1226 20.323 17.0317L20.3235 17.0322Z" fill="#D9D9D9"/>
<path d="M21.0496 21.9095C21.0438 22.0073 21.0496 22.1071 21.0306 22.2028C20.9926 22.3951 20.8393 22.5093 20.6512 22.4913C20.4567 22.4728 20.341 22.3603 20.3272 22.1668C20.3145 21.9925 20.3151 21.8159 20.3251 21.641C20.3367 21.4386 20.4704 21.3097 20.6565 21.2991C20.8509 21.288 21.0068 21.4117 21.0359 21.6151C21.0496 21.7113 21.038 21.8112 21.038 21.909H21.0496V21.9095Z" fill="#D9D9D9"/>
<path d="M17.4021 7.3295C17.4063 7.2312 17.4021 7.13185 17.4169 7.03567C17.4449 6.85282 17.559 6.74871 17.7435 6.73708C17.9274 6.72545 18.0764 6.81107 18.1018 6.99128C18.1324 7.21059 18.1345 7.43942 18.1065 7.65874C18.0827 7.84687 17.9332 7.94358 17.7387 7.92773C17.5448 7.91187 17.4338 7.79614 17.4137 7.60325C17.4042 7.51288 17.4121 7.42092 17.4121 7.33003C17.4089 7.33003 17.4058 7.33003 17.4021 7.33003V7.3295Z" fill="#D9D9D9"/>
<path d="M17.4137 12.1755C17.4137 12.0846 17.4047 11.9922 17.4158 11.9023C17.4385 11.7195 17.5469 11.6096 17.7318 11.5926C17.9258 11.5747 18.0785 11.665 18.1044 11.8542C18.1345 12.073 18.1345 12.3029 18.1039 12.5217C18.0775 12.7109 17.9237 12.8002 17.7297 12.7812C17.5453 12.7632 17.437 12.6528 17.4158 12.4694C17.4047 12.3727 17.4137 12.2733 17.4142 12.175L17.4137 12.1755Z" fill="#D9D9D9"/>
<path d="M19.59 7.35591C19.5842 7.44734 19.5863 7.54669 19.5694 7.64287C19.5387 7.81568 19.4272 7.91292 19.2528 7.92825C19.0779 7.94357 18.9225 7.86536 18.8982 7.69995C18.8639 7.4616 18.8618 7.21111 18.8956 6.9733C18.9204 6.79573 19.0816 6.7191 19.265 6.73918C19.4394 6.75874 19.5461 6.86073 19.571 7.0346C19.5858 7.13818 19.5837 7.2444 19.5895 7.35644L19.59 7.35591Z" fill="#D9D9D9"/>
<path d="M19.5894 12.2131C19.5841 12.2977 19.5863 12.397 19.5699 12.4932C19.5408 12.666 19.4319 12.7659 19.257 12.7817C19.0731 12.7981 18.9188 12.7167 18.8924 12.5386C18.8591 12.3135 18.858 12.0773 18.8876 11.8522C18.9119 11.6624 19.0673 11.5747 19.2612 11.5937C19.4457 11.6122 19.5524 11.7227 19.5741 11.9061C19.5857 12.0033 19.5841 12.1021 19.5894 12.2136V12.2131Z" fill="#D9D9D9"/>
<path d="M7.92555 15.5905C7.92555 15.682 7.93295 15.7739 7.92396 15.8643C7.90388 16.0614 7.77757 16.1708 7.59155 16.1846C7.41293 16.1978 7.25862 16.1053 7.23431 15.9245C7.20472 15.7047 7.20577 15.4764 7.23061 15.256C7.25069 15.079 7.43724 14.959 7.60213 14.9849C7.78762 15.0145 7.90917 15.1202 7.92555 15.3168C7.93295 15.4077 7.92661 15.4991 7.92661 15.5905H7.92555Z" fill="#D9D9D9"/>
<path d="M8.66067 15.5694C8.66701 15.4716 8.66542 15.3723 8.6818 15.2761C8.71298 15.0901 8.84246 14.9918 9.01792 14.986C9.19496 14.9802 9.34504 15.0721 9.36671 15.2566C9.39207 15.4701 9.39313 15.6904 9.36987 15.9039C9.35032 16.0841 9.17276 16.2083 9.00787 16.1872C8.82238 16.1629 8.69502 16.0625 8.67652 15.8643C8.66754 15.7671 8.67493 15.6682 8.67493 15.5699C8.67018 15.5699 8.66543 15.5699 8.66014 15.5699L8.66067 15.5694Z" fill="#D9D9D9"/>
<path d="M10.8364 15.5847C10.8364 15.683 10.8459 15.7824 10.8343 15.8791C10.8116 16.0662 10.6863 16.1697 10.5103 16.184C10.3322 16.1983 10.1742 16.1111 10.1504 15.9293C10.1214 15.7031 10.1214 15.4674 10.1504 15.2412C10.1737 15.0589 10.3322 14.9722 10.5098 14.9865C10.6852 15.0002 10.8116 15.1038 10.8343 15.2909C10.8459 15.3876 10.8364 15.487 10.8364 15.5853V15.5847Z" fill="#D9D9D9"/>
<path d="M7.92502 20.4499C7.92502 20.5413 7.93347 20.6332 7.92343 20.7236C7.90124 20.9197 7.77493 21.0285 7.58785 21.0402C7.40817 21.0513 7.2565 20.9561 7.23325 20.7759C7.20471 20.5561 7.20524 20.3272 7.23219 20.1074C7.25439 19.9256 7.40659 19.8405 7.58574 19.8389C7.75908 19.8374 7.90282 19.9753 7.9229 20.1555C7.93347 20.2527 7.92502 20.3516 7.92502 20.4499Z" fill="#D9D9D9"/>
<path d="M9.40635 20.4382C9.39313 20.5561 9.39313 20.6776 9.36301 20.7912C9.31809 20.9619 9.18492 21.0481 9.0158 21.0401C8.83877 21.0322 8.70242 20.9344 8.68286 20.7479C8.66331 20.5603 8.66384 20.369 8.67494 20.1808C8.68656 19.9806 8.82661 19.8484 9.00893 19.8368C9.19073 19.8252 9.3535 19.961 9.38415 20.1639C9.39736 20.2532 9.38626 20.3457 9.38626 20.4372C9.39313 20.4372 9.39948 20.4382 9.40635 20.4387V20.4382Z" fill="#D9D9D9"/>
<path d="M10.8374 20.4504C10.8374 20.5418 10.8459 20.6338 10.8358 20.7236C10.8136 20.9202 10.6868 21.0285 10.4997 21.0391C10.3206 21.0491 10.1689 20.9561 10.1467 20.7738C10.1197 20.554 10.1203 20.3257 10.1467 20.1053C10.1684 19.9219 10.3221 19.8305 10.4997 19.84C10.6852 19.85 10.8152 19.9573 10.8363 20.155C10.8469 20.2522 10.8379 20.351 10.8379 20.4493L10.8374 20.4504Z" fill="#D9D9D9"/>
<path d="M7.92767 13.1665C7.92767 13.2505 7.93401 13.3356 7.92661 13.4191C7.90758 13.6204 7.77652 13.7473 7.58892 13.7552C7.40289 13.7631 7.24118 13.6469 7.22057 13.4529C7.19996 13.259 7.20049 13.0597 7.22004 12.8652C7.2396 12.6708 7.39972 12.5534 7.58574 12.5598C7.77388 12.5661 7.90706 12.6924 7.92661 12.8927C7.93506 12.9831 7.92819 13.075 7.92872 13.1659L7.92767 13.1665Z" fill="#D9D9D9"/>
<path d="M7.92765 18.02C7.92765 18.104 7.93399 18.1891 7.92659 18.2726C7.9081 18.4739 7.77756 18.6013 7.58996 18.6103C7.40288 18.6187 7.24116 18.5035 7.22055 18.3101C7.19942 18.1161 7.19994 17.9169 7.21897 17.7224C7.23799 17.528 7.39812 17.4096 7.58361 17.4154C7.77228 17.4212 7.90598 17.5475 7.92553 17.7473C7.93452 17.8376 7.92712 17.9296 7.92712 18.0205C7.92712 18.0205 7.92712 18.0205 7.92765 18.0205V18.02Z" fill="#D9D9D9"/>
<path d="M10.8369 18.0284C10.8369 18.1193 10.8469 18.2118 10.8347 18.3016C10.8104 18.4845 10.7 18.5917 10.515 18.6076C10.3311 18.6229 10.1773 18.541 10.152 18.3619C10.1197 18.1362 10.1176 17.9 10.1488 17.6743C10.1747 17.4857 10.3316 17.3979 10.5256 17.4191C10.7095 17.4392 10.8168 17.5512 10.8363 17.7346C10.8469 17.8318 10.8379 17.9306 10.8379 18.0289C10.8379 18.0289 10.8374 18.0289 10.8369 18.0289V18.0284Z" fill="#D9D9D9"/>
<path d="M10.839 13.1569C10.839 13.2478 10.8469 13.3403 10.8374 13.4302C10.8168 13.6231 10.7058 13.7383 10.5113 13.7531C10.3163 13.7679 10.1694 13.6711 10.144 13.4825C10.1155 13.27 10.116 13.0476 10.144 12.8346C10.1689 12.6454 10.3153 12.5487 10.5103 12.5624C10.7053 12.5762 10.8168 12.6903 10.8379 12.8837C10.8474 12.9736 10.8395 13.066 10.84 13.1569H10.839Z" fill="#D9D9D9"/>
<path d="M9.40049 18.0479C9.39362 18.1187 9.39626 18.2329 9.37037 18.3407C9.32492 18.5294 9.19174 18.6224 8.99832 18.6076C8.81389 18.5933 8.69604 18.4866 8.68019 18.3027C8.66433 18.1219 8.66327 17.938 8.6749 17.7567C8.68811 17.5506 8.82076 17.4259 9.00731 17.4159C9.20179 17.4053 9.35082 17.5269 9.38517 17.7346C9.39996 17.8239 9.39521 17.9163 9.40102 18.0485L9.40049 18.0479Z" fill="#D9D9D9"/>
<path d="M9.40105 13.1977C9.39312 13.2738 9.3947 13.3884 9.36722 13.4952C9.32125 13.6733 9.19335 13.7636 9.00892 13.7536C8.82448 13.7436 8.70029 13.6416 8.68232 13.4582C8.66382 13.2706 8.66382 13.0798 8.67651 12.8917C8.69025 12.6882 8.82818 12.5661 9.01685 12.5608C9.20498 12.5556 9.34608 12.6692 9.38149 12.8689C9.3984 12.9646 9.39417 13.0645 9.40157 13.1982L9.40105 13.1977Z" fill="#D9D9D9"/>
<path d="M17.642 19.7222C17.642 20.7897 17.642 21.8572 17.6415 22.9247C17.6415 23.0087 17.6425 23.0943 17.6278 23.1768C17.5971 23.3501 17.4861 23.4474 17.3123 23.4627C17.1384 23.4775 17.0089 23.4008 16.9513 23.236C16.9222 23.1519 16.9159 23.0573 16.9154 22.967C16.9133 20.7965 16.9133 18.6261 16.9154 16.4562C16.9154 16.3664 16.9222 16.2712 16.9508 16.1872C17.0079 16.0218 17.1416 15.9415 17.3117 15.9579C17.4787 15.9742 17.5987 16.0704 17.6278 16.2464C17.6415 16.3288 17.641 16.4145 17.641 16.4985C17.642 17.5729 17.6415 18.6478 17.641 19.7222H17.642Z" fill="#D9D9D9"/>
<path d="M14.7285 19.7142C14.7285 20.7817 14.7285 21.8492 14.7285 22.9168C14.7285 23.0008 14.7301 23.0864 14.7169 23.1688C14.6889 23.3422 14.5822 23.4436 14.4072 23.4611C14.2239 23.4791 14.0917 23.3993 14.0347 23.2233C14.0093 23.1451 14.0035 23.0579 14.0035 22.9749C14.0019 20.7976 14.0019 18.6203 14.0035 16.443C14.0035 16.36 14.0109 16.2728 14.0362 16.1946C14.0907 16.0265 14.2238 15.9436 14.3919 15.9573C14.5679 15.9716 14.6926 16.0725 14.718 16.2596C14.7291 16.3426 14.7285 16.4277 14.7285 16.5117C14.7291 17.5792 14.7285 18.6467 14.7285 19.7142Z" fill="#D9D9D9"/>
<path d="M15.4647 19.7005C15.4647 18.633 15.4647 17.5655 15.4647 16.4974C15.4647 16.4134 15.4626 16.3278 15.4769 16.2453C15.5065 16.0699 15.6264 15.9748 15.794 15.9573C15.9546 15.9409 16.0873 16.0144 16.1464 16.1682C16.1808 16.257 16.1887 16.36 16.1887 16.4562C16.1908 18.6266 16.1908 20.7971 16.1887 22.9675C16.1887 23.0642 16.1813 23.1678 16.1459 23.2555C16.0809 23.4172 15.9451 23.4833 15.7718 23.46C15.6058 23.4378 15.5054 23.3395 15.4763 23.1768C15.4621 23.0948 15.4642 23.0087 15.4642 22.9247C15.4637 21.8498 15.4642 20.7754 15.4642 19.7005H15.4647Z" fill="#D9D9D9"/>
<path d="M12.4202 9.39792C11.9842 9.39792 11.5487 9.39897 11.1127 9.39686C11.0361 9.39686 10.9568 9.39369 10.8839 9.37361C10.6963 9.32287 10.6028 9.1934 10.6186 8.99892C10.6339 8.81343 10.7423 8.69716 10.9262 8.68237C11.1286 8.66598 11.3331 8.66968 11.5371 8.66968C12.2468 8.66863 12.9571 8.66968 13.6668 8.66968C13.7303 8.66968 13.7937 8.66757 13.8566 8.67232C14.0938 8.68871 14.2455 8.83087 14.2445 9.03327C14.2434 9.23356 14.0896 9.38153 13.8539 9.3958C13.7139 9.40426 13.5728 9.39844 13.4322 9.39844C13.095 9.39844 12.7573 9.39844 12.4202 9.39844V9.39792Z" fill="#D9D9D9"/>
<path d="M11.9437 29.9458V31.1595C11.9028 31.2202 11.8375 31.2885 11.7479 31.3644C11.6583 31.4388 11.5346 31.5041 11.3767 31.5603C11.2204 31.6149 11.0185 31.6422 10.771 31.6422C10.5691 31.6422 10.3832 31.6073 10.2131 31.5375C10.0446 31.4661 9.89815 31.3629 9.77367 31.2278C9.65071 31.0912 9.55507 30.9257 9.48675 30.7314C9.41996 30.5356 9.38656 30.3139 9.38656 30.0665V29.8092C9.38656 29.5617 9.41541 29.3408 9.47309 29.1465C9.5323 28.9522 9.61883 28.7875 9.73268 28.6524C9.84654 28.5158 9.9862 28.4126 10.1517 28.3427C10.3171 28.2714 10.5069 28.2357 10.7209 28.2357C10.9745 28.2357 11.1862 28.2797 11.3563 28.3678C11.5278 28.4543 11.6614 28.5742 11.757 28.7276C11.8542 28.8809 11.9164 29.0555 11.9437 29.2513H11.5043C11.4845 29.1314 11.4451 29.0221 11.3859 28.9234C11.3282 28.8247 11.2454 28.7458 11.1377 28.6866C11.0299 28.6258 10.891 28.5955 10.7209 28.5955C10.5676 28.5955 10.4348 28.6236 10.3224 28.6797C10.2101 28.7359 10.1175 28.8164 10.0446 28.9211C9.97178 29.0259 9.91713 29.1526 9.88069 29.3014C9.84578 29.4502 9.82832 29.6179 9.82832 29.8046V30.0665C9.82832 30.2578 9.85033 30.4285 9.89436 30.5788C9.9399 30.7291 10.0044 30.8574 10.0879 30.9637C10.1714 31.0684 10.2708 31.1481 10.3862 31.2028C10.5031 31.2574 10.6321 31.2847 10.7733 31.2847C10.9297 31.2847 11.0564 31.2718 11.1536 31.246C11.2507 31.2187 11.3266 31.1868 11.3813 31.1504C11.436 31.1124 11.4777 31.0768 11.5065 31.0434V30.301H10.7392V29.9458H11.9437ZM13.1132 29.52V31.5967H12.6919V29.1329H13.1018L13.1132 29.52ZM13.8829 29.1192L13.8806 29.5109C13.8457 29.5033 13.8123 29.4987 13.7804 29.4972C13.75 29.4942 13.7151 29.4927 13.6756 29.4927C13.5785 29.4927 13.4927 29.5078 13.4183 29.5382C13.3439 29.5686 13.2809 29.6111 13.2293 29.6657C13.1777 29.7204 13.1367 29.7856 13.1064 29.8615C13.0775 29.9359 13.0585 30.0179 13.0494 30.1075L12.931 30.1758C12.931 30.027 12.9454 29.8874 12.9743 29.7568C13.0047 29.6262 13.051 29.5109 13.1132 29.4107C13.1754 29.309 13.2544 29.23 13.35 29.1739C13.4472 29.1162 13.5625 29.0873 13.6961 29.0873C13.7265 29.0873 13.7614 29.0911 13.8009 29.0987C13.8403 29.1048 13.8677 29.1116 13.8829 29.1192ZM15.7172 31.1754V29.9071C15.7172 29.8099 15.6975 29.7257 15.658 29.6543C15.6201 29.5815 15.5624 29.5253 15.485 29.4858C15.4075 29.4464 15.3119 29.4266 15.198 29.4266C15.0918 29.4266 14.9984 29.4448 14.918 29.4813C14.839 29.5177 14.7768 29.5655 14.7312 29.6247C14.6872 29.6839 14.6652 29.7477 14.6652 29.816H14.2439C14.2439 29.728 14.2667 29.6407 14.3123 29.5541C14.3578 29.4676 14.4231 29.3894 14.5081 29.3196C14.5946 29.2482 14.6978 29.1921 14.8178 29.1511C14.9392 29.1086 15.0743 29.0873 15.2231 29.0873C15.4022 29.0873 15.5601 29.1177 15.6967 29.1784C15.8349 29.2391 15.9427 29.331 16.0201 29.4539C16.099 29.5754 16.1385 29.728 16.1385 29.9116V31.0593C16.1385 31.1413 16.1453 31.2286 16.159 31.3212C16.1742 31.4138 16.1962 31.4935 16.225 31.5603V31.5967H15.7855C15.7643 31.5481 15.7476 31.4836 15.7354 31.4031C15.7233 31.3212 15.7172 31.2453 15.7172 31.1754ZM15.7901 30.1029L15.7946 30.3989H15.3688C15.2489 30.3989 15.1419 30.4088 15.0478 30.4285C14.9536 30.4468 14.8747 30.4748 14.8109 30.5128C14.7472 30.5507 14.6986 30.5986 14.6652 30.6563C14.6318 30.7124 14.6151 30.7785 14.6151 30.8544C14.6151 30.9318 14.6326 31.0024 14.6675 31.0661C14.7024 31.1299 14.7548 31.1807 14.8246 31.2187C14.8959 31.2551 14.9832 31.2733 15.0865 31.2733C15.2155 31.2733 15.3294 31.246 15.428 31.1914C15.5267 31.1367 15.6049 31.0699 15.6626 30.991C15.7218 30.912 15.7537 30.8354 15.7582 30.761L15.9381 30.9637C15.9275 31.0274 15.8986 31.098 15.8516 31.1754C15.8045 31.2529 15.7415 31.3272 15.6626 31.3986C15.5851 31.4684 15.4925 31.5269 15.3848 31.5739C15.2785 31.6195 15.1586 31.6422 15.025 31.6422C14.858 31.6422 14.7115 31.6096 14.5855 31.5443C14.461 31.479 14.3639 31.3918 14.294 31.2825C14.2257 31.1716 14.1916 31.0479 14.1916 30.9113C14.1916 30.7792 14.2174 30.6631 14.269 30.5629C14.3206 30.4612 14.395 30.3769 14.4921 30.3101C14.5893 30.2418 14.7062 30.1902 14.8428 30.1553C14.9794 30.1204 15.132 30.1029 15.3005 30.1029H15.7901ZM17.3057 29.6589V31.5967H16.8844V29.1329H17.2829L17.3057 29.6589ZM17.2055 30.2714L17.0301 30.2646C17.0316 30.0961 17.0567 29.9405 17.1053 29.7978C17.1539 29.6536 17.2222 29.5283 17.3102 29.4221C17.3983 29.3158 17.503 29.2338 17.6245 29.1761C17.7474 29.1169 17.8833 29.0873 18.0321 29.0873C18.1535 29.0873 18.2628 29.104 18.36 29.1374C18.4571 29.1693 18.5398 29.2209 18.6082 29.2923C18.678 29.3636 18.7311 29.4562 18.7676 29.5701C18.804 29.6824 18.8222 29.8198 18.8222 29.9822V31.5967H18.3987V29.9777C18.3987 29.8486 18.3797 29.7454 18.3417 29.668C18.3038 29.5891 18.2484 29.5321 18.1755 29.4972C18.1026 29.4608 18.0131 29.4426 17.9068 29.4426C17.8021 29.4426 17.7064 29.4646 17.6199 29.5086C17.5349 29.5526 17.4613 29.6133 17.399 29.6908C17.3383 29.7682 17.2905 29.857 17.2556 29.9572C17.2222 30.0559 17.2055 30.1606 17.2055 30.2714ZM7.20998 36.2392V36.5967H5.45434V36.2392H7.20998ZM5.54315 33.2812V36.5967H5.10367V33.2812H5.54315ZM6.97772 34.7067V35.0642H5.45434V34.7067H6.97772ZM7.18721 33.2812V33.641H5.45434V33.2812H7.18721ZM8.19271 34.6225V36.5967H7.76917V34.1329H8.16994L8.19271 34.6225ZM8.10618 35.2714L7.91035 35.2646C7.91187 35.0961 7.93388 34.9405 7.97639 34.7978C8.01889 34.6536 8.08189 34.5283 8.16539 34.4221C8.24888 34.3158 8.35287 34.2338 8.47735 34.1761C8.60183 34.1169 8.74605 34.0873 8.91 34.0873C9.02537 34.0873 9.13164 34.104 9.22879 34.1374C9.32595 34.1693 9.4102 34.2202 9.48155 34.29C9.5529 34.3598 9.60831 34.4494 9.64778 34.5587C9.68725 34.668 9.70698 34.8001 9.70698 34.9549V36.5967H9.28572V34.9754C9.28572 34.8464 9.26371 34.7431 9.21968 34.6657C9.17718 34.5883 9.11646 34.5321 9.03752 34.4972C8.95858 34.4608 8.86597 34.4426 8.75971 34.4426C8.63523 34.4426 8.53124 34.4646 8.44775 34.5086C8.36425 34.5526 8.29746 34.6133 8.24736 34.6908C8.19727 34.7682 8.16083 34.857 8.13806 34.9572C8.11681 35.0559 8.10618 35.1606 8.10618 35.2714ZM9.70243 35.0392L9.42007 35.1257C9.42159 34.9906 9.4436 34.8608 9.4861 34.7363C9.53013 34.6118 9.59313 34.501 9.6751 34.4038C9.7586 34.3067 9.86107 34.23 9.98251 34.1739C10.104 34.1162 10.2429 34.0873 10.3992 34.0873C10.5313 34.0873 10.6482 34.1048 10.7499 34.1397C10.8531 34.1746 10.9397 34.2285 11.0095 34.3014C11.0808 34.3727 11.1347 34.4646 11.1712 34.5769C11.2076 34.6892 11.2258 34.8228 11.2258 34.9777V36.5967H10.8023V34.9731C10.8023 34.835 10.7803 34.728 10.7362 34.6521C10.6937 34.5746 10.633 34.5207 10.5541 34.4904C10.4766 34.4585 10.384 34.4426 10.2763 34.4426C10.1837 34.4426 10.1017 34.4585 10.0303 34.4904C9.95898 34.5223 9.89902 34.5663 9.85044 34.6225C9.80186 34.6771 9.76467 34.7401 9.73886 34.8115C9.71457 34.8828 9.70243 34.9587 9.70243 35.0392ZM12.3679 34.6065V37.544H11.9444V34.1329H12.3315L12.3679 34.6065ZM14.0279 35.3443V35.3921C14.0279 35.5712 14.0067 35.7375 13.9642 35.8908C13.9217 36.0426 13.8594 36.1747 13.7775 36.287C13.697 36.3993 13.5976 36.4866 13.4792 36.5489C13.3607 36.6111 13.2249 36.6422 13.0716 36.6422C12.9152 36.6422 12.7771 36.6164 12.6571 36.5648C12.5372 36.5132 12.4355 36.4381 12.352 36.3394C12.2685 36.2407 12.2017 36.1223 12.1516 35.9842C12.103 35.846 12.0696 35.6904 12.0514 35.5174V35.2623C12.0696 35.0801 12.1038 34.917 12.1539 34.7727C12.204 34.6285 12.27 34.5056 12.352 34.4038C12.4355 34.3006 12.5364 34.2224 12.6548 34.1693C12.7733 34.1147 12.9099 34.0873 13.0647 34.0873C13.2196 34.0873 13.357 34.1177 13.4769 34.1784C13.5968 34.2376 13.6978 34.3226 13.7797 34.4335C13.8617 34.5443 13.9232 34.6771 13.9642 34.8319C14.0067 34.9853 14.0279 35.1561 14.0279 35.3443ZM13.6044 35.3921V35.3443C13.6044 35.2213 13.5915 35.106 13.5657 34.9982C13.5399 34.8889 13.4997 34.7932 13.445 34.7113C13.3919 34.6278 13.3236 34.5625 13.2401 34.5154C13.1566 34.4668 13.0571 34.4426 12.9418 34.4426C12.8355 34.4426 12.7429 34.4608 12.664 34.4972C12.5865 34.5336 12.5205 34.583 12.4658 34.6452C12.4112 34.7059 12.3664 34.7758 12.3315 34.8547C12.2981 34.9321 12.2731 35.0126 12.2564 35.0961V35.6859C12.2867 35.7921 12.3292 35.8923 12.3839 35.9864C12.4385 36.079 12.5114 36.1542 12.6025 36.2119C12.6936 36.268 12.8082 36.2961 12.9463 36.2961C13.0602 36.2961 13.1581 36.2726 13.2401 36.2255C13.3236 36.1769 13.3919 36.1109 13.445 36.0274C13.4997 35.9439 13.5399 35.8483 13.5657 35.7405C13.5915 35.6312 13.6044 35.5151 13.6044 35.3921ZM15.0699 34.52V36.5967H14.6486V34.1329H15.0585L15.0699 34.52ZM15.8395 34.1192L15.8373 34.5109C15.8023 34.5033 15.7689 34.4987 15.7371 34.4972C15.7067 34.4942 15.6718 34.4927 15.6323 34.4927C15.5352 34.4927 15.4494 34.5078 15.375 34.5382C15.3006 34.5686 15.2376 34.6111 15.186 34.6657C15.1344 34.7204 15.0934 34.7856 15.063 34.8615C15.0342 34.9359 15.0152 35.0179 15.0061 35.1075L14.8877 35.1758C14.8877 35.027 14.9021 34.8874 14.931 34.7568C14.9613 34.6262 15.0076 34.5109 15.0699 34.4107C15.1321 34.309 15.2111 34.23 15.3067 34.1739C15.4038 34.1162 15.5192 34.0873 15.6528 34.0873C15.6832 34.0873 15.7181 34.0911 15.7576 34.0987C15.797 34.1048 15.8244 34.1116 15.8395 34.1192ZM17.2891 36.6422C17.1175 36.6422 16.9619 36.6134 16.8223 36.5557C16.6841 36.4965 16.565 36.4138 16.4648 36.3075C16.3661 36.2012 16.2902 36.0752 16.237 35.9295C16.1839 35.7838 16.1574 35.6244 16.1574 35.4513V35.3557C16.1574 35.1553 16.187 34.9769 16.2462 34.8206C16.3054 34.6627 16.3858 34.5291 16.4875 34.4198C16.5892 34.3105 16.7046 34.2278 16.8336 34.1716C16.9627 34.1154 17.0963 34.0873 17.2344 34.0873C17.4105 34.0873 17.5623 34.1177 17.6898 34.1784C17.8189 34.2391 17.9244 34.3242 18.0064 34.4335C18.0883 34.5412 18.1491 34.6688 18.1885 34.816C18.228 34.9617 18.2477 35.1211 18.2477 35.2942V35.4832H16.4078V35.1394H17.8265V35.1075C17.8204 34.9982 17.7976 34.8919 17.7582 34.7887C17.7202 34.6855 17.6595 34.6004 17.576 34.5336C17.4925 34.4668 17.3786 34.4335 17.2344 34.4335C17.1388 34.4335 17.0507 34.4539 16.9703 34.4949C16.8898 34.5344 16.8207 34.5936 16.7631 34.6725C16.7054 34.7515 16.6606 34.8479 16.6287 34.9617C16.5968 35.0756 16.5809 35.2069 16.5809 35.3557V35.4513C16.5809 35.5682 16.5968 35.6783 16.6287 35.7815C16.6621 35.8832 16.7099 35.9728 16.7722 36.0502C16.8359 36.1276 16.9126 36.1883 17.0022 36.2324C17.0932 36.2764 17.1965 36.2984 17.3118 36.2984C17.4606 36.2984 17.5866 36.268 17.6898 36.2073C17.7931 36.1466 17.8834 36.0654 17.9608 35.9637L18.2158 36.1663C18.1627 36.2468 18.0952 36.3234 18.0132 36.3963C17.9312 36.4692 17.8303 36.5284 17.7103 36.5739C17.5919 36.6195 17.4515 36.6422 17.2891 36.6422ZM20.2574 35.9432C20.2574 35.8824 20.2438 35.8263 20.2164 35.7747C20.1906 35.7215 20.1367 35.6737 20.0548 35.6312C19.9743 35.5872 19.8529 35.5492 19.6904 35.5174C19.5538 35.4885 19.4301 35.4544 19.3193 35.4149C19.21 35.3754 19.1166 35.3276 19.0392 35.2714C18.9633 35.2153 18.9048 35.1492 18.8638 35.0733C18.8229 34.9974 18.8024 34.9086 18.8024 34.8069C18.8024 34.7097 18.8236 34.6179 18.8661 34.5314C18.9101 34.4448 18.9716 34.3682 19.0506 34.3014C19.131 34.2346 19.2274 34.1822 19.3398 34.1443C19.4521 34.1063 19.5773 34.0873 19.7155 34.0873C19.9128 34.0873 20.0813 34.1222 20.221 34.1921C20.3607 34.2619 20.4677 34.3553 20.5421 34.4722C20.6165 34.5875 20.6536 34.7158 20.6536 34.857H20.2324C20.2324 34.7887 20.2119 34.7226 20.1709 34.6589C20.1314 34.5936 20.073 34.5397 19.9956 34.4972C19.9197 34.4547 19.8263 34.4335 19.7155 34.4335C19.5986 34.4335 19.5037 34.4517 19.4308 34.4881C19.3595 34.523 19.3071 34.5678 19.2737 34.6225C19.2418 34.6771 19.2259 34.7348 19.2259 34.7955C19.2259 34.8411 19.2335 34.882 19.2487 34.9185C19.2654 34.9534 19.2942 34.986 19.3352 35.0164C19.3762 35.0452 19.4339 35.0726 19.5083 35.0984C19.5826 35.1242 19.6775 35.15 19.7929 35.1758C19.9948 35.2213 20.161 35.276 20.2916 35.3397C20.4221 35.4035 20.5193 35.4817 20.5831 35.5743C20.6468 35.6669 20.6787 35.7792 20.6787 35.9113C20.6787 36.0191 20.6559 36.1177 20.6104 36.2073C20.5664 36.2969 20.5018 36.3743 20.4168 36.4396C20.3333 36.5033 20.2331 36.5534 20.1162 36.5899C20.0009 36.6248 19.8711 36.6422 19.7269 36.6422C19.5098 36.6422 19.3261 36.6035 19.1758 36.5261C19.0255 36.4487 18.9117 36.3485 18.8342 36.2255C18.7568 36.1026 18.7181 35.9728 18.7181 35.8361H19.1416C19.1477 35.9515 19.1811 36.0434 19.2418 36.1117C19.3026 36.1785 19.3769 36.2263 19.465 36.2551C19.553 36.2825 19.6403 36.2961 19.7269 36.2961C19.8422 36.2961 19.9386 36.2809 20.0161 36.2506C20.095 36.2202 20.155 36.1785 20.1959 36.1253C20.2369 36.0722 20.2574 36.0115 20.2574 35.9432ZM22.7681 36.1754V34.9071C22.7681 34.8099 22.7484 34.7257 22.7089 34.6543C22.6709 34.5815 22.6132 34.5253 22.5358 34.4858C22.4584 34.4464 22.3628 34.4266 22.2489 34.4266C22.1426 34.4266 22.0493 34.4448 21.9688 34.4813C21.8899 34.5177 21.8277 34.5655 21.7821 34.6247C21.7381 34.6839 21.7161 34.7477 21.7161 34.816H21.2948C21.2948 34.728 21.3176 34.6407 21.3631 34.5541C21.4087 34.4676 21.4739 34.3894 21.559 34.3196C21.6455 34.2482 21.7487 34.1921 21.8686 34.1511C21.9901 34.1086 22.1252 34.0873 22.274 34.0873C22.4531 34.0873 22.611 34.1177 22.7476 34.1784C22.8857 34.2391 22.9935 34.331 23.0709 34.4539C23.1499 34.5754 23.1894 34.728 23.1894 34.9116V36.0593C23.1894 36.1413 23.1962 36.2286 23.2098 36.3212C23.225 36.4138 23.247 36.4935 23.2759 36.5603V36.5967H22.8364C22.8152 36.5481 22.7985 36.4836 22.7863 36.4031C22.7742 36.3212 22.7681 36.2453 22.7681 36.1754ZM22.841 35.1029L22.8455 35.3989H22.4197C22.2998 35.3989 22.1927 35.4088 22.0986 35.4285C22.0045 35.4468 21.9256 35.4748 21.8618 35.5128C21.798 35.5507 21.7495 35.5986 21.7161 35.6563C21.6827 35.7124 21.666 35.7785 21.666 35.8544C21.666 35.9318 21.6834 36.0024 21.7183 36.0661C21.7533 36.1299 21.8056 36.1807 21.8755 36.2187C21.9468 36.2551 22.0341 36.2733 22.1373 36.2733C22.2664 36.2733 22.3802 36.246 22.4789 36.1914C22.5776 36.1367 22.6558 36.0699 22.7134 35.991C22.7726 35.912 22.8045 35.8354 22.8091 35.761L22.989 35.9637C22.9783 36.0274 22.9495 36.098 22.9024 36.1754C22.8554 36.2529 22.7924 36.3272 22.7134 36.3986C22.636 36.4684 22.5434 36.5269 22.4356 36.5739C22.3294 36.6195 22.2094 36.6422 22.0759 36.6422C21.9089 36.6422 21.7624 36.6096 21.6364 36.5443C21.5119 36.479 21.4147 36.3918 21.3449 36.2825C21.2766 36.1716 21.2424 36.0479 21.2424 35.9113C21.2424 35.7792 21.2682 35.6631 21.3199 35.5629C21.3715 35.4612 21.4459 35.3769 21.543 35.3101C21.6402 35.2418 21.7571 35.1902 21.8937 35.1553C22.0303 35.1204 22.1829 35.1029 22.3514 35.1029H22.841Z" fill="#D9D9D9"/>
</svg>
