<svg width="26" height="41" viewBox="0 0 26 41" fill="none" xmlns="http://www.w3.org/2000/svg">
<path d="M10.8077 14.5014C11.0111 14.5051 11.0487 14.4353 11.0481 14.2504C11.0423 12.0635 11.0376 7.54299 11.0344 7.47376L11.046 6.71224C11.046 6.48764 11.046 6.27202 11.046 6.05693C11.046 5.76152 11.0413 5.4661 11.0492 5.17121C11.0555 4.93129 11.175 4.81238 11.4112 4.79071C11.4809 4.78437 11.5518 4.78596 11.622 4.78596C13.746 4.78596 15.8694 4.78596 17.9933 4.78596C18.4795 4.78596 18.5672 4.87527 18.5672 5.36675C18.5672 11.5478 18.5672 17.7293 18.5672 23.9103C18.5672 24.0001 18.5672 24.0905 18.5672 24.2073C18.7369 24.2073 21.0035 24.2115 21.1557 24.2062C21.3671 24.1983 21.5541 24.2332 21.6292 24.4652C21.7026 24.6914 21.5584 24.8171 21.3988 24.9318H4.88456C4.80371 24.8314 4.68956 24.7426 4.64992 24.6285C4.58122 24.4303 4.7535 24.2316 4.98075 24.2126C5.07851 24.2041 5.17734 24.2089 5.27616 24.2078C5.37393 24.2073 5.4717 24.2078 5.60276 24.2078L7.62786 24.1962V14.8998C7.62786 14.6774 7.80807 14.4966 8.03056 14.4961C8.75456 14.4945 10.2517 14.4924 10.8077 14.5024M17.8274 24.1967V5.52846H11.7838V14.4824H12.9607C13.0368 14.1436 13.1393 14.0184 13.3369 14.011C13.5393 14.0036 13.6472 14.1278 13.7454 14.4876H14.4198C14.4309 14.4258 14.4383 14.3708 14.451 14.3169C14.4975 14.1241 14.6512 13.9993 14.8241 14.0115C15.0069 14.0247 15.1374 14.1563 15.1586 14.3576C15.167 14.4411 15.1655 14.5262 15.1655 14.6102C15.1655 17.7182 15.1655 20.8261 15.1665 23.9341C15.1665 24.0218 15.175 24.1095 15.1792 24.1957H17.8268L17.8274 24.1967ZM14.4224 24.1962V15.2391H8.38252V24.1962H14.4224Z" fill="#D9D9D9"/>
<path d="M15.9048 14.6071C15.9048 14.523 15.8984 14.438 15.9058 14.3545C15.9233 14.1595 16.0612 14.0226 16.243 14.0115C16.4163 14.0009 16.5929 14.1309 16.6124 14.3185C16.6325 14.513 16.6325 14.7122 16.6135 14.9067C16.595 15.0964 16.4237 15.2259 16.2483 15.2185C16.0665 15.2106 15.9254 15.0748 15.9069 14.8808C15.8984 14.7905 15.9053 14.6985 15.9048 14.6071Z" fill="#D9D9D9"/>
<path d="M15.1713 9.77102C15.166 9.8635 15.1665 9.96233 15.1533 10.0596C15.1274 10.2472 15.0006 10.3481 14.8257 10.3592C14.6486 10.3708 14.4933 10.2831 14.47 10.0992C14.4425 9.87936 14.4425 9.65159 14.4668 9.43174C14.4869 9.24783 14.6375 9.15377 14.8151 9.16064C15.0016 9.16804 15.1301 9.27426 15.1554 9.47138C15.1676 9.56862 15.1665 9.66744 15.1718 9.77102H15.1713Z" fill="#D9D9D9"/>
<path d="M15.908 19.4759C15.908 19.3776 15.899 19.2782 15.9101 19.1815C15.9312 18.995 16.0522 18.8893 16.2293 18.8718C16.4084 18.8544 16.568 18.9395 16.5934 19.1192C16.6256 19.3448 16.6261 19.581 16.5981 19.8078C16.5759 19.9874 16.4216 20.0815 16.2419 20.0688C16.0549 20.0556 15.9301 19.9457 15.909 19.7496C15.8995 19.6593 15.9074 19.5673 15.9074 19.4759C15.9074 19.4759 15.908 19.4759 15.9085 19.4759H15.908Z" fill="#D9D9D9"/>
<path d="M15.9074 9.74831C15.9074 9.65689 15.899 9.56493 15.909 9.47457C15.9296 9.29436 16.0734 9.15695 16.2462 9.15801C16.4264 9.15907 16.577 9.24574 16.5997 9.42647C16.6272 9.64632 16.6267 9.87515 16.5992 10.095C16.5765 10.2768 16.4222 10.3698 16.2446 10.3592C16.0591 10.3481 15.9302 10.2403 15.909 10.0427C15.899 9.94543 15.9074 9.84608 15.9074 9.74779V9.74831Z" fill="#D9D9D9"/>
<path d="M12.9961 9.76258C12.9961 9.66428 12.9866 9.56493 12.9982 9.46822C13.0199 9.28167 13.1435 9.17703 13.32 9.16117C13.4987 9.14532 13.6572 9.23199 13.6815 9.41326C13.7116 9.63944 13.7111 9.87514 13.6831 10.1013C13.6604 10.2842 13.5024 10.3724 13.3253 10.3587C13.1398 10.3444 13.014 10.234 12.9956 10.0358C12.9871 9.94543 12.994 9.85347 12.994 9.76205C12.9945 9.76205 12.995 9.76205 12.9956 9.76205L12.9961 9.76258Z" fill="#D9D9D9"/>
<path d="M15.9069 12.1809C15.9069 12.0895 15.8984 11.9975 15.9085 11.9077C15.9296 11.7195 16.0612 11.5969 16.2419 11.5911C16.438 11.5848 16.5796 11.6831 16.6055 11.8701C16.6335 12.0762 16.6314 12.2908 16.6082 12.498C16.5865 12.6909 16.4168 12.8029 16.2287 12.7828C16.0342 12.7622 15.9259 12.647 15.9069 12.4541C15.8979 12.3637 15.9053 12.2718 15.9053 12.1809H15.9069Z" fill="#D9D9D9"/>
<path d="M15.9064 7.32897C15.9064 7.23754 15.8979 7.14559 15.9079 7.05575C15.9301 6.86233 16.0438 6.74976 16.2382 6.73708C16.4332 6.7244 16.5775 6.82375 16.6039 7.01189C16.6325 7.21799 16.6304 7.43255 16.6082 7.63971C16.5876 7.83207 16.4179 7.94728 16.2314 7.92826C16.0374 7.9087 15.927 7.79455 15.9069 7.60219C15.8974 7.51182 15.9053 7.41987 15.9053 7.32897C15.9053 7.32897 15.9058 7.32897 15.9064 7.32897Z" fill="#D9D9D9"/>
<path d="M15.9048 17.0328C15.9048 16.9487 15.8985 16.8636 15.9058 16.7801C15.9228 16.5873 16.0295 16.471 16.2235 16.4472C16.4111 16.4245 16.5839 16.5349 16.6066 16.7262C16.6309 16.9334 16.6309 17.1474 16.6071 17.3546C16.5849 17.5459 16.4148 17.6564 16.2256 17.6357C16.03 17.6151 15.9243 17.4978 15.9064 17.3054C15.8979 17.2151 15.9048 17.1231 15.9043 17.0322L15.9048 17.0328Z" fill="#D9D9D9"/>
<path d="M16.6314 21.91C16.6256 22.0078 16.6314 22.1077 16.6124 22.2033C16.5744 22.3957 16.4211 22.5098 16.233 22.4919C16.0385 22.4734 15.9228 22.3608 15.909 22.1674C15.8963 21.993 15.8969 21.8165 15.9069 21.6415C15.9185 21.4391 16.0522 21.3102 16.2383 21.2996C16.4327 21.2885 16.5886 21.4122 16.6177 21.6157C16.6314 21.7118 16.6198 21.8117 16.6198 21.9095H16.6314V21.91Z" fill="#D9D9D9"/>
<path d="M12.9834 7.33002C12.9876 7.23173 12.9834 7.13238 12.9982 7.03619C13.0262 6.85334 13.1403 6.74923 13.3248 6.73761C13.5087 6.72598 13.6577 6.81159 13.6831 6.9918C13.7137 7.21112 13.7158 7.43995 13.6878 7.65926C13.6641 7.8474 13.5145 7.94411 13.32 7.92825C13.1261 7.9124 13.0151 7.79667 12.995 7.60377C12.9855 7.5134 12.9934 7.42145 12.9934 7.33055C12.9903 7.33055 12.9871 7.33055 12.9834 7.33055V7.33002Z" fill="#D9D9D9"/>
<path d="M12.995 12.1761C12.995 12.0852 12.986 11.9927 12.9971 11.9029C13.0198 11.72 13.1282 11.6101 13.3131 11.5932C13.5071 11.5752 13.6598 11.6656 13.6857 11.8548C13.7158 12.0736 13.7158 12.3035 13.6852 12.5222C13.6588 12.7114 13.505 12.8007 13.311 12.7817C13.1266 12.7638 13.0183 12.6533 12.9971 12.4699C12.986 12.3732 12.995 12.2739 12.9955 12.1756L12.995 12.1761Z" fill="#D9D9D9"/>
<path d="M15.1712 7.35646C15.1654 7.44789 15.1675 7.54724 15.1506 7.64342C15.12 7.81623 15.0085 7.91347 14.8341 7.92879C14.6592 7.94412 14.5038 7.86591 14.4795 7.70049C14.4451 7.46215 14.443 7.21166 14.4768 6.97385C14.5017 6.79628 14.6629 6.71965 14.8462 6.73973C15.0206 6.75929 15.1274 6.86128 15.1522 7.03515C15.167 7.13873 15.1649 7.24495 15.1707 7.35699L15.1712 7.35646Z" fill="#D9D9D9"/>
<path d="M15.1707 12.2136C15.1654 12.2982 15.1676 12.3975 15.1512 12.4937C15.1221 12.6665 15.0132 12.7664 14.8383 12.7823C14.6544 12.7986 14.5001 12.7173 14.4737 12.5392C14.4404 12.314 14.4393 12.0778 14.4689 11.8527C14.4932 11.663 14.6486 11.5752 14.8425 11.5943C15.027 11.6128 15.1337 11.7232 15.1554 11.9066C15.167 12.0038 15.1654 12.1026 15.1707 12.2142V12.2136Z" fill="#D9D9D9"/>
<path d="M13.2233 19.7227C13.2233 20.7902 13.2233 21.8577 13.2228 22.9252C13.2228 23.0092 13.2239 23.0949 13.2091 23.1773C13.1784 23.3506 13.0674 23.4479 12.8936 23.4632C12.7197 23.478 12.5902 23.4014 12.5326 23.2365C12.5035 23.1525 12.4972 23.0579 12.4967 22.9675C12.4946 20.7971 12.4946 18.6266 12.4967 16.4567C12.4967 16.3669 12.5035 16.2718 12.5321 16.1877C12.5892 16.0223 12.7229 15.942 12.893 15.9584C13.06 15.9748 13.18 16.0709 13.2091 16.2469C13.2228 16.3294 13.2223 16.415 13.2223 16.499C13.2233 17.5734 13.2228 18.6483 13.2223 19.7227H13.2233Z" fill="#D9D9D9"/>
<path d="M10.3104 19.7147C10.3104 20.7823 10.3104 21.8498 10.3104 22.9173C10.3104 23.0013 10.3119 23.0869 10.2987 23.1694C10.2707 23.3427 10.164 23.4442 9.98905 23.4616C9.80567 23.4796 9.67355 23.3998 9.61647 23.2238C9.59111 23.1456 9.5853 23.0584 9.5853 22.9754C9.58371 20.7981 9.58371 18.6208 9.5853 16.4435C9.5853 16.3605 9.59269 16.2733 9.61806 16.1951C9.67249 16.0271 9.80567 15.9441 9.97372 15.9578C10.1497 15.9721 10.2744 16.0731 10.2998 16.2601C10.3109 16.3431 10.3104 16.4282 10.3104 16.5122C10.3109 17.5797 10.3104 18.6472 10.3104 19.7147Z" fill="#D9D9D9"/>
<path d="M11.046 19.701C11.046 18.6335 11.046 17.566 11.046 16.498C11.046 16.4139 11.0439 16.3283 11.0582 16.2459C11.0878 16.0704 11.2077 15.9753 11.3753 15.9579C11.5359 15.9415 11.6686 16.0149 11.7277 16.1687C11.7621 16.2575 11.77 16.3606 11.77 16.4567C11.7721 18.6272 11.7721 20.7976 11.77 22.968C11.77 23.0647 11.7626 23.1683 11.7272 23.2561C11.6622 23.4178 11.5264 23.4838 11.3531 23.4606C11.1871 23.4384 11.0867 23.3401 11.0576 23.1773C11.0434 23.0954 11.0455 23.0093 11.0455 22.9252C11.045 21.8503 11.0455 20.7759 11.0455 19.701H11.046Z" fill="#D9D9D9"/>
<path d="M4.4348 28.2812H4.86061L5.94679 30.9841L7.03069 28.2812H7.45878L6.11074 31.5967H5.77829L4.4348 28.2812ZM4.29589 28.2812H4.67162L4.7331 30.3033V31.5967H4.29589V28.2812ZM7.21969 28.2812H7.59541V31.5967H7.15821V30.3033L7.21969 28.2812ZM9.40928 31.6422C9.23774 31.6422 9.08214 31.6134 8.94248 31.5557C8.80433 31.4965 8.68516 31.4138 8.58497 31.3075C8.4863 31.2012 8.41039 31.0752 8.35726 30.9295C8.30413 30.7838 8.27756 30.6244 8.27756 30.4513V30.3557C8.27756 30.1553 8.30717 29.9769 8.36637 29.8206C8.42557 29.6627 8.50603 29.5291 8.60774 29.4198C8.70945 29.3105 8.82483 29.2277 8.95386 29.1716C9.0829 29.1154 9.21649 29.0873 9.35463 29.0873C9.53073 29.0873 9.68253 29.1177 9.81005 29.1784C9.93909 29.2391 10.0446 29.3241 10.1266 29.4334C10.2085 29.5412 10.2693 29.6687 10.3087 29.816C10.3482 29.9617 10.3679 30.1211 10.3679 30.2942V30.4832H8.52804V30.1393H9.94668V30.1075C9.9406 29.9982 9.91783 29.8919 9.87836 29.7887C9.84041 29.6854 9.77969 29.6004 9.6962 29.5336C9.6127 29.4668 9.49885 29.4334 9.35463 29.4334C9.25899 29.4334 9.17094 29.4539 9.09049 29.4949C9.01003 29.5344 8.94096 29.5936 8.88327 29.6725C8.82558 29.7515 8.7808 29.8479 8.74892 29.9617C8.71704 30.0756 8.7011 30.2069 8.7011 30.3557V30.4513C8.7011 30.5682 8.71704 30.6783 8.74892 30.7815C8.78232 30.8832 8.83014 30.9728 8.89238 31.0502C8.95614 31.1276 9.0328 31.1883 9.12237 31.2324C9.21345 31.2764 9.31668 31.2984 9.43205 31.2984C9.58082 31.2984 9.70682 31.268 9.81005 31.2073C9.91328 31.1466 10.0036 31.0654 10.081 30.9637L10.3361 31.1663C10.2829 31.2468 10.2154 31.3234 10.1334 31.3963C10.0514 31.4692 9.95047 31.5284 9.83054 31.5739C9.71213 31.6195 9.57171 31.6422 9.40928 31.6422ZM12.496 31.1185V28.0991H12.9196V31.5967H12.5325L12.496 31.1185ZM10.8383 30.3921V30.3443C10.8383 30.156 10.8611 29.9853 10.9066 29.8319C10.9537 29.6771 11.0197 29.5443 11.1047 29.4334C11.1913 29.3226 11.2937 29.2376 11.4122 29.1784C11.5321 29.1177 11.6657 29.0873 11.8129 29.0873C11.9678 29.0873 12.1029 29.1147 12.2182 29.1693C12.3351 29.2224 12.4338 29.3006 12.5143 29.4038C12.5962 29.5056 12.6608 29.6285 12.7078 29.7727C12.7549 29.9169 12.7875 30.0801 12.8057 30.2623V30.4718C12.789 30.6525 12.7564 30.8149 12.7078 30.9591C12.6608 31.1033 12.5962 31.2263 12.5143 31.328C12.4338 31.4297 12.3351 31.5079 12.2182 31.5625C12.1014 31.6157 11.9647 31.6422 11.8084 31.6422C11.6641 31.6422 11.5321 31.6111 11.4122 31.5489C11.2937 31.4866 11.1913 31.3993 11.1047 31.287C11.0197 31.1747 10.9537 31.0426 10.9066 30.8908C10.8611 30.7375 10.8383 30.5712 10.8383 30.3921ZM11.2619 30.3443V30.3921C11.2619 30.5151 11.274 30.6304 11.2983 30.7382C11.3241 30.846 11.3636 30.9409 11.4167 31.0229C11.4698 31.1048 11.5374 31.1694 11.6194 31.2164C11.7013 31.262 11.7993 31.2847 11.9131 31.2847C12.0528 31.2847 12.1674 31.2551 12.257 31.1959C12.348 31.1367 12.4209 31.0585 12.4756 30.9614C12.5302 30.8642 12.5727 30.7587 12.6031 30.6449V30.0961C12.5849 30.0126 12.5583 29.9321 12.5234 29.8547C12.49 29.7758 12.446 29.7059 12.3913 29.6452C12.3382 29.583 12.2721 29.5336 12.1932 29.4972C12.1158 29.4608 12.0239 29.4426 11.9177 29.4426C11.8023 29.4426 11.7029 29.4668 11.6194 29.5154C11.5374 29.5625 11.4698 29.6278 11.4167 29.7113C11.3636 29.7932 11.3241 29.8889 11.2983 29.9982C11.274 30.1059 11.2619 30.2213 11.2619 30.3443ZM14.1164 29.1329V31.5967H13.6928V29.1329H14.1164ZM13.6609 28.4793C13.6609 28.411 13.6814 28.3533 13.7224 28.3063C13.7649 28.2592 13.8272 28.2357 13.9092 28.2357C13.9896 28.2357 14.0511 28.2592 14.0936 28.3063C14.1376 28.3533 14.1596 28.411 14.1596 28.4793C14.1596 28.5446 14.1376 28.6008 14.0936 28.6478C14.0511 28.6934 13.9896 28.7162 13.9092 28.7162C13.8272 28.7162 13.7649 28.6934 13.7224 28.6478C13.6814 28.6008 13.6609 28.5446 13.6609 28.4793ZM16.3287 31.1754V29.9071C16.3287 29.8099 16.309 29.7257 16.2695 29.6543C16.2316 29.5815 16.1739 29.5253 16.0965 29.4858C16.019 29.4463 15.9234 29.4266 15.8096 29.4266C15.7033 29.4266 15.6099 29.4448 15.5295 29.4813C15.4505 29.5177 15.3883 29.5655 15.3427 29.6247C15.2987 29.6839 15.2767 29.7477 15.2767 29.816H14.8554C14.8554 29.7279 14.8782 29.6407 14.9238 29.5541C14.9693 29.4676 15.0346 29.3894 15.1196 29.3196C15.2061 29.2482 15.3093 29.1921 15.4293 29.1511C15.5507 29.1086 15.6858 29.0873 15.8346 29.0873C16.0137 29.0873 16.1716 29.1177 16.3082 29.1784C16.4464 29.2391 16.5542 29.331 16.6316 29.4539C16.7105 29.5754 16.75 29.7279 16.75 29.9116V31.0593C16.75 31.1413 16.7568 31.2286 16.7705 31.3212C16.7857 31.4138 16.8077 31.4935 16.8365 31.5603V31.5967H16.397C16.3758 31.5481 16.3591 31.4836 16.3469 31.4031C16.3348 31.3212 16.3287 31.2453 16.3287 31.1754ZM16.4016 30.1029L16.4062 30.3989H15.9803C15.8604 30.3989 15.7534 30.4088 15.6593 30.4285C15.5651 30.4468 15.4862 30.4748 15.4224 30.5128C15.3587 30.5507 15.3101 30.5986 15.2767 30.6562C15.2433 30.7124 15.2266 30.7785 15.2266 30.8544C15.2266 30.9318 15.2441 31.0024 15.279 31.0661C15.3139 31.1299 15.3663 31.1807 15.4361 31.2187C15.5075 31.2551 15.5947 31.2733 15.698 31.2733C15.827 31.2733 15.9409 31.246 16.0395 31.1914C16.1382 31.1367 16.2164 31.0699 16.2741 30.991C16.3333 30.912 16.3652 30.8354 16.3697 30.761L16.5496 30.9637C16.539 31.0274 16.5101 31.098 16.4631 31.1754C16.416 31.2528 16.353 31.3272 16.2741 31.3986C16.1967 31.4684 16.1041 31.5269 15.9963 31.5739C15.89 31.6195 15.7701 31.6422 15.6365 31.6422C15.4695 31.6422 15.323 31.6096 15.197 31.5443C15.0725 31.479 14.9754 31.3917 14.9055 31.2824C14.8372 31.1716 14.8031 31.0479 14.8031 30.9113C14.8031 30.7792 14.8289 30.6631 14.8805 30.5629C14.9321 30.4612 15.0065 30.3769 15.1037 30.3101C15.2008 30.2418 15.3177 30.1902 15.4543 30.1553C15.591 30.1204 15.7435 30.1029 15.912 30.1029H16.4016ZM17.9172 29.6589V31.5967H17.4959V29.1329H17.8944L17.9172 29.6589ZM17.817 30.2714L17.6416 30.2646C17.6432 30.0961 17.6682 29.9405 17.7168 29.7978C17.7654 29.6536 17.8337 29.5283 17.9217 29.4221C18.0098 29.3158 18.1145 29.2338 18.236 29.1761C18.3589 29.1169 18.4948 29.0873 18.6436 29.0873C18.765 29.0873 18.8743 29.104 18.9715 29.1374C19.0686 29.1693 19.1514 29.2209 19.2197 29.2923C19.2895 29.3636 19.3426 29.4562 19.3791 29.5701C19.4155 29.6824 19.4337 29.8198 19.4337 29.9822V31.5967H19.0102V29.9777C19.0102 29.8486 18.9912 29.7454 18.9532 29.668C18.9153 29.589 18.8599 29.5321 18.787 29.4972C18.7142 29.4608 18.6246 29.4426 18.5183 29.4426C18.4136 29.4426 18.3179 29.4646 18.2314 29.5086C18.1464 29.5526 18.0728 29.6133 18.0105 29.6908C17.9498 29.7682 17.902 29.857 17.8671 29.9572C17.8337 30.0559 17.817 30.1606 17.817 30.2714ZM21.6096 31.1754V29.9071C21.6096 29.8099 21.5899 29.7257 21.5504 29.6543C21.5125 29.5815 21.4548 29.5253 21.3774 29.4858C21.3 29.4463 21.2043 29.4266 21.0905 29.4266C20.9842 29.4266 20.8908 29.4448 20.8104 29.4813C20.7314 29.5177 20.6692 29.5655 20.6237 29.6247C20.5796 29.6839 20.5576 29.7477 20.5576 29.816H20.1364C20.1364 29.7279 20.1591 29.6407 20.2047 29.5541C20.2502 29.4676 20.3155 29.3894 20.4005 29.3196C20.487 29.2482 20.5903 29.1921 20.7102 29.1511C20.8316 29.1086 20.9667 29.0873 21.1155 29.0873C21.2946 29.0873 21.4525 29.1177 21.5892 29.1784C21.7273 29.2391 21.8351 29.331 21.9125 29.4539C21.9914 29.5754 22.0309 29.7279 22.0309 29.9116V31.0593C22.0309 31.1413 22.0377 31.2286 22.0514 31.3212C22.0666 31.4138 22.0886 31.4935 22.1174 31.5603V31.5967H21.678C21.6567 31.5481 21.64 31.4836 21.6279 31.4031C21.6157 31.3212 21.6096 31.2453 21.6096 31.1754ZM21.6825 30.1029L21.6871 30.3989H21.2613C21.1413 30.3989 21.0343 30.4088 20.9402 30.4285C20.8461 30.4468 20.7671 30.4748 20.7034 30.5128C20.6396 30.5507 20.591 30.5986 20.5576 30.6562C20.5242 30.7124 20.5075 30.7785 20.5075 30.8544C20.5075 30.9318 20.525 31.0024 20.5599 31.0661C20.5948 31.1299 20.6472 31.1807 20.717 31.2187C20.7884 31.2551 20.8757 31.2733 20.9789 31.2733C21.1079 31.2733 21.2218 31.246 21.3205 31.1914C21.4191 31.1367 21.4973 31.0699 21.555 30.991C21.6142 30.912 21.6461 30.8354 21.6506 30.761L21.8305 30.9637C21.8199 31.0274 21.7911 31.098 21.744 31.1754C21.6969 31.2528 21.6339 31.3272 21.555 31.3986C21.4776 31.4684 21.385 31.5269 21.2772 31.5739C21.1709 31.6195 21.051 31.6422 20.9174 31.6422C20.7504 31.6422 20.6039 31.6096 20.4779 31.5443C20.3534 31.479 20.2563 31.3917 20.1865 31.2824C20.1181 31.1716 20.084 31.0479 20.084 30.9113C20.084 30.7792 20.1098 30.6631 20.1614 30.5629C20.213 30.4612 20.2874 30.3769 20.3846 30.3101C20.4817 30.2418 20.5986 30.1902 20.7352 30.1553C20.8719 30.1204 21.0244 30.1029 21.1929 30.1029H21.6825ZM6.22687 36.2392V36.5967H4.47123V36.2392H6.22687ZM4.56004 33.2812V36.5967H4.12056V33.2812H4.56004ZM5.99461 34.7067V35.0642H4.47123V34.7067H5.99461ZM6.2041 33.2812V33.641H4.47123V33.2812H6.2041ZM7.2096 34.6224V36.5967H6.78606V34.1329H7.18683L7.2096 34.6224ZM7.12307 35.2714L6.92724 35.2646C6.92876 35.0961 6.95077 34.9405 6.99328 34.7978C7.03579 34.6536 7.09879 34.5283 7.18228 34.4221C7.26577 34.3158 7.36976 34.2338 7.49424 34.1761C7.61872 34.1169 7.76294 34.0873 7.92689 34.0873C8.04226 34.0873 8.14853 34.104 8.24568 34.1374C8.34284 34.1693 8.42709 34.2202 8.49844 34.29C8.56979 34.3598 8.6252 34.4494 8.66467 34.5587C8.70414 34.668 8.72387 34.8001 8.72387 34.9549V36.5967H8.30261V34.9754C8.30261 34.8464 8.2806 34.7431 8.23658 34.6657C8.19407 34.5883 8.13335 34.5321 8.05441 34.4972C7.97547 34.4608 7.88287 34.4426 7.7766 34.4426C7.65212 34.4426 7.54813 34.4646 7.46464 34.5086C7.38115 34.5526 7.31435 34.6133 7.26425 34.6908C7.21416 34.7682 7.17772 34.857 7.15495 34.9572C7.1337 35.0559 7.12307 35.1606 7.12307 35.2714ZM8.71932 35.0392L8.43696 35.1257C8.43848 34.9906 8.46049 34.8608 8.503 34.7363C8.54702 34.6118 8.61002 34.501 8.69199 34.4038C8.77549 34.3067 8.87796 34.23 8.9994 34.1739C9.12085 34.1162 9.25975 34.0873 9.41611 34.0873C9.54818 34.0873 9.66507 34.1048 9.76678 34.1397C9.87001 34.1746 9.95654 34.2285 10.0264 34.3014C10.0977 34.3727 10.1516 34.4646 10.188 34.5769C10.2245 34.6892 10.2427 34.8228 10.2427 34.9777V36.5967H9.81916V34.9731C9.81916 34.835 9.79715 34.7279 9.75312 34.652C9.71062 34.5746 9.64989 34.5207 9.57095 34.4904C9.49353 34.4585 9.40093 34.4426 9.29315 34.4426C9.20055 34.4426 9.11857 34.4585 9.04722 34.4904C8.97587 34.5223 8.91591 34.5663 8.86733 34.6224C8.81875 34.6771 8.78156 34.7401 8.75575 34.8114C8.73146 34.8828 8.71932 34.9587 8.71932 35.0392ZM11.3848 34.6065V37.544H10.9613V34.1329H11.3484L11.3848 34.6065ZM13.0448 35.3443V35.3921C13.0448 35.5712 13.0236 35.7375 12.9811 35.8908C12.9386 36.0426 12.8763 36.1747 12.7943 36.287C12.7139 36.3993 12.6145 36.4866 12.496 36.5489C12.3776 36.6111 12.2418 36.6422 12.0884 36.6422C11.9321 36.6422 11.7939 36.6164 11.674 36.5648C11.5541 36.5132 11.4524 36.438 11.3689 36.3394C11.2854 36.2407 11.2186 36.1223 11.1685 35.9841C11.1199 35.846 11.0865 35.6904 11.0683 35.5173V35.2623C11.0865 35.0801 11.1207 34.9169 11.1708 34.7727C11.2209 34.6285 11.2869 34.5056 11.3689 34.4038C11.4524 34.3006 11.5533 34.2224 11.6717 34.1693C11.7901 34.1147 11.9268 34.0873 12.0816 34.0873C12.2365 34.0873 12.3738 34.1177 12.4938 34.1784C12.6137 34.2376 12.7147 34.3226 12.7966 34.4334C12.8786 34.5443 12.9401 34.6771 12.9811 34.8319C13.0236 34.9853 13.0448 35.156 13.0448 35.3443ZM12.6213 35.3921V35.3443C12.6213 35.2213 12.6084 35.1059 12.5826 34.9982C12.5568 34.8889 12.5165 34.7932 12.4619 34.7113C12.4088 34.6278 12.3404 34.5625 12.257 34.5154C12.1735 34.4668 12.074 34.4426 11.9587 34.4426C11.8524 34.4426 11.7598 34.4608 11.6808 34.4972C11.6034 34.5336 11.5374 34.583 11.4827 34.6452C11.4281 34.7059 11.3833 34.7758 11.3484 34.8547C11.315 34.9321 11.2899 35.0126 11.2732 35.0961V35.6858C11.3036 35.7921 11.3461 35.8923 11.4008 35.9864C11.4554 36.079 11.5283 36.1542 11.6194 36.2119C11.7105 36.268 11.8251 36.2961 11.9632 36.2961C12.0771 36.2961 12.175 36.2726 12.257 36.2255C12.3404 36.1769 12.4088 36.1109 12.4619 36.0274C12.5165 35.9439 12.5568 35.8483 12.5826 35.7405C12.6084 35.6312 12.6213 35.5151 12.6213 35.3921ZM14.0868 34.52V36.5967H13.6655V34.1329H14.0754L14.0868 34.52ZM14.8564 34.1192L14.8541 34.5109C14.8192 34.5033 14.7858 34.4987 14.754 34.4972C14.7236 34.4942 14.6887 34.4926 14.6492 34.4926C14.5521 34.4926 14.4663 34.5078 14.3919 34.5382C14.3175 34.5686 14.2545 34.6111 14.2029 34.6657C14.1513 34.7204 14.1103 34.7856 14.0799 34.8615C14.0511 34.9359 14.0321 35.0179 14.023 35.1075L13.9046 35.1758C13.9046 35.027 13.919 34.8873 13.9479 34.7568C13.9782 34.6262 14.0245 34.5109 14.0868 34.4107C14.149 34.309 14.2279 34.23 14.3236 34.1739C14.4207 34.1162 14.5361 34.0873 14.6697 34.0873C14.7001 34.0873 14.735 34.0911 14.7744 34.0987C14.8139 34.1048 14.8412 34.1116 14.8564 34.1192ZM16.306 36.6422C16.1344 36.6422 15.9788 36.6134 15.8392 36.5557C15.701 36.4965 15.5818 36.4138 15.4817 36.3075C15.383 36.2012 15.3071 36.0752 15.2539 35.9295C15.2008 35.7838 15.1742 35.6244 15.1742 35.4513V35.3557C15.1742 35.1553 15.2038 34.9769 15.263 34.8206C15.3223 34.6627 15.4027 34.5291 15.5044 34.4198C15.6061 34.3105 15.7215 34.2277 15.8505 34.1716C15.9796 34.1154 16.1132 34.0873 16.2513 34.0873C16.4274 34.0873 16.5792 34.1177 16.7067 34.1784C16.8358 34.2391 16.9413 34.3241 17.0232 34.4334C17.1052 34.5412 17.1659 34.6687 17.2054 34.816C17.2449 34.9617 17.2646 35.1211 17.2646 35.2942V35.4832H15.4247V35.1393H16.8434V35.1075C16.8373 34.9982 16.8145 34.8919 16.775 34.7887C16.7371 34.6854 16.6764 34.6004 16.5929 34.5336C16.5094 34.4668 16.3955 34.4334 16.2513 34.4334C16.1557 34.4334 16.0676 34.4539 15.9872 34.4949C15.9067 34.5344 15.8376 34.5936 15.78 34.6725C15.7223 34.7515 15.6775 34.8479 15.6456 34.9617C15.6137 35.0756 15.5978 35.2069 15.5978 35.3557V35.4513C15.5978 35.5682 15.6137 35.6783 15.6456 35.7815C15.679 35.8832 15.7268 35.9728 15.7891 36.0502C15.8528 36.1276 15.9295 36.1883 16.019 36.2324C16.1101 36.2764 16.2134 36.2984 16.3287 36.2984C16.4775 36.2984 16.6035 36.268 16.7067 36.2073C16.81 36.1466 16.9003 36.0654 16.9777 35.9637L17.2327 36.1663C17.1796 36.2468 17.1121 36.3234 17.0301 36.3963C16.9481 36.4692 16.8471 36.5284 16.7272 36.5739C16.6088 36.6195 16.4684 36.6422 16.306 36.6422ZM19.2743 35.9432C19.2743 35.8824 19.2607 35.8263 19.2333 35.7747C19.2075 35.7215 19.1536 35.6737 19.0717 35.6312C18.9912 35.5872 18.8698 35.5492 18.7073 35.5173C18.5707 35.4885 18.447 35.4543 18.3362 35.4149C18.2269 35.3754 18.1335 35.3276 18.0561 35.2714C17.9802 35.2152 17.9217 35.1492 17.8807 35.0733C17.8397 34.9974 17.8193 34.9086 17.8193 34.8069C17.8193 34.7097 17.8405 34.6179 17.883 34.5314C17.927 34.4448 17.9885 34.3682 18.0675 34.3014C18.1479 34.2346 18.2443 34.1822 18.3566 34.1443C18.469 34.1063 18.5942 34.0873 18.7324 34.0873C18.9297 34.0873 19.0982 34.1222 19.2379 34.1921C19.3775 34.2619 19.4846 34.3553 19.559 34.4722C19.6333 34.5875 19.6705 34.7158 19.6705 34.857H19.2493C19.2493 34.7887 19.2288 34.7226 19.1878 34.6589C19.1483 34.5936 19.0899 34.5397 19.0125 34.4972C18.9365 34.4547 18.8432 34.4334 18.7324 34.4334C18.6155 34.4334 18.5206 34.4517 18.4477 34.4881C18.3764 34.523 18.324 34.5678 18.2906 34.6224C18.2587 34.6771 18.2428 34.7348 18.2428 34.7955C18.2428 34.841 18.2504 34.882 18.2656 34.9185C18.2823 34.9534 18.3111 34.986 18.3521 35.0164C18.3931 35.0452 18.4508 35.0725 18.5252 35.0984C18.5995 35.1242 18.6944 35.15 18.8098 35.1758C19.0117 35.2213 19.1779 35.276 19.3085 35.3397C19.439 35.4035 19.5362 35.4817 19.5999 35.5743C19.6637 35.6669 19.6956 35.7792 19.6956 35.9113C19.6956 36.0191 19.6728 36.1177 19.6273 36.2073C19.5832 36.2969 19.5187 36.3743 19.4337 36.4396C19.3502 36.5033 19.25 36.5534 19.1331 36.5899C19.0178 36.6248 18.888 36.6422 18.7438 36.6422C18.5267 36.6422 18.343 36.6035 18.1927 36.5261C18.0424 36.4487 17.9286 36.3485 17.8511 36.2255C17.7737 36.1026 17.735 35.9728 17.735 35.8361H18.1585C18.1646 35.9515 18.198 36.0434 18.2587 36.1117C18.3195 36.1785 18.3938 36.2263 18.4819 36.2551C18.5699 36.2824 18.6572 36.2961 18.7438 36.2961C18.8591 36.2961 18.9555 36.2809 19.0329 36.2506C19.1119 36.2202 19.1718 36.1785 19.2128 36.1253C19.2538 36.0722 19.2743 36.0115 19.2743 35.9432ZM21.785 36.1754V34.9071C21.785 34.8099 21.7652 34.7257 21.7258 34.6543C21.6878 34.5815 21.6301 34.5253 21.5527 34.4858C21.4753 34.4463 21.3797 34.4266 21.2658 34.4266C21.1595 34.4266 21.0662 34.4448 20.9857 34.4813C20.9068 34.5177 20.8445 34.5655 20.799 34.6247C20.755 34.6839 20.733 34.7477 20.733 34.816H20.3117C20.3117 34.7279 20.3345 34.6407 20.38 34.5541C20.4256 34.4676 20.4908 34.3894 20.5758 34.3196C20.6624 34.2482 20.7656 34.1921 20.8855 34.1511C21.007 34.1086 21.1421 34.0873 21.2909 34.0873C21.47 34.0873 21.6279 34.1177 21.7645 34.1784C21.9026 34.2391 22.0104 34.331 22.0878 34.4539C22.1668 34.5754 22.2062 34.7279 22.2062 34.9116V36.0593C22.2062 36.1413 22.2131 36.2286 22.2267 36.3212C22.2419 36.4138 22.2639 36.4935 22.2928 36.5603V36.5967H21.8533C21.832 36.5481 21.8153 36.4836 21.8032 36.4031C21.7911 36.3212 21.785 36.2453 21.785 36.1754ZM21.8579 35.1029L21.8624 35.3989H21.4366C21.3167 35.3989 21.2096 35.4088 21.1155 35.4285C21.0214 35.4468 20.9425 35.4748 20.8787 35.5128C20.8149 35.5507 20.7664 35.5986 20.733 35.6562C20.6996 35.7124 20.6829 35.7785 20.6829 35.8544C20.6829 35.9318 20.7003 36.0024 20.7352 36.0661C20.7702 36.1299 20.8225 36.1807 20.8924 36.2187C20.9637 36.2551 21.051 36.2733 21.1542 36.2733C21.2833 36.2733 21.3971 36.246 21.4958 36.1914C21.5945 36.1367 21.6726 36.0699 21.7303 35.991C21.7895 35.912 21.8214 35.8354 21.826 35.761L22.0059 35.9637C21.9952 36.0274 21.9664 36.098 21.9193 36.1754C21.8723 36.2528 21.8093 36.3272 21.7303 36.3986C21.6529 36.4684 21.5603 36.5269 21.4525 36.5739C21.3463 36.6195 21.2263 36.6422 21.0927 36.6422C20.9258 36.6422 20.7793 36.6096 20.6533 36.5443C20.5288 36.479 20.4316 36.3917 20.3618 36.2824C20.2935 36.1716 20.2593 36.0479 20.2593 35.9113C20.2593 35.7792 20.2851 35.6631 20.3367 35.5629C20.3884 35.4612 20.4627 35.3769 20.5599 35.3101C20.6571 35.2418 20.774 35.1902 20.9106 35.1553C21.0472 35.1204 21.1998 35.1029 21.3683 35.1029H21.8579Z" fill="#D9D9D9"/>
</svg>
