<svg width="26" height="41" viewBox="0 0 26 41" fill="none" xmlns="http://www.w3.org/2000/svg">
<rect width="25.6621" height="40.9277" fill="white"/>
<path d="M10.4244 15.6979C10.4244 15.356 10.4233 15.0378 10.4244 14.7202C10.4254 14.4507 10.5485 14.3228 10.817 14.3223C12.617 14.3212 12.9896 14.3212 14.7895 14.3223C15.0585 14.3223 15.1827 14.4496 15.1838 14.7181C15.1848 15.0394 15.1838 15.3602 15.1838 15.6974C15.4697 15.6974 15.7413 15.6974 16.0135 15.6974C16.0896 15.6974 16.1657 15.6947 16.2418 15.7C16.4151 15.7116 16.5398 15.8353 16.5557 16.0092C16.5615 16.0715 16.5599 16.1344 16.5599 16.1968C16.5599 19.2904 16.5599 20.9572 16.5599 24.0509V24.2422C16.6445 24.2422 16.719 24.2422 16.793 24.2422C17.1603 24.2422 16.9985 24.2412 17.3658 24.2422C17.5973 24.2433 17.7474 24.378 17.749 24.5826C17.7506 24.7887 17.6063 24.9229 17.3722 24.9314C17.341 24.9324 17.3093 24.9314 17.2781 24.9314C13.4684 24.9314 12.1947 24.9314 8.38499 24.9314C8.33161 24.9314 8.27718 24.9324 8.22433 24.9255C8.02351 24.9002 7.90091 24.7527 7.91412 24.5577C7.92627 24.3765 8.06843 24.2449 8.26714 24.2433C8.65239 24.2401 8.4558 24.2422 8.84106 24.2422C8.90342 24.2422 8.96578 24.2422 9.04927 24.2422V24.0662C9.04927 20.9726 9.04927 19.3058 9.04927 16.2121C9.04927 16.163 9.04822 16.1138 9.0498 16.0641C9.0572 15.829 9.18562 15.6995 9.41921 15.6974C9.70141 15.6947 9.98308 15.6968 10.2653 15.6968C10.3134 15.6968 10.3615 15.6968 10.4249 15.6968L10.4244 15.6979ZM9.74263 16.3886V24.2322H11.1082C11.1082 24.1682 11.1082 24.1143 11.1082 24.061C11.1082 23.3539 11.1082 22.6462 11.1082 21.9391C11.1082 21.6099 11.2239 21.4936 11.5511 21.4936C12.8585 21.4936 12.7385 21.4936 14.046 21.4936C14.3895 21.4936 14.4994 21.6057 14.4994 21.9555C14.4994 22.6626 14.4994 23.3703 14.4994 24.0773C14.4994 24.1291 14.4994 24.1809 14.4994 24.2338H15.8644V16.3886H9.74263ZM11.1151 15.6873H14.4888V15.0162H11.1151V15.6873ZM11.8068 22.1844V24.2338H12.4769V22.1844H11.8068ZM13.1819 24.2327H13.8018V22.1859H13.1819V24.2327Z" fill="#283252"/>
<path d="M14.1506 17.7108C14.3747 17.7108 14.5982 17.7087 14.8223 17.7114C15.0342 17.714 15.1801 17.8514 15.1832 18.0454C15.1864 18.2478 15.0443 18.391 14.8234 18.3931C14.38 18.3973 13.9371 18.3968 13.4937 18.3931C13.2723 18.3915 13.1243 18.2499 13.1238 18.0522C13.1238 17.8504 13.2765 17.7124 13.5064 17.7108C13.7215 17.7093 13.9361 17.7108 14.1511 17.7108H14.1506Z" fill="#283252"/>
<path d="M14.1543 19.4305C14.3784 19.4305 14.6019 19.4284 14.826 19.431C15.0363 19.4337 15.1817 19.5742 15.1827 19.7687C15.1843 19.9653 15.0443 20.1096 14.8318 20.1117C14.38 20.1164 13.9276 20.1164 13.4758 20.1117C13.266 20.1096 13.1212 19.9605 13.1233 19.7682C13.1254 19.5753 13.2734 19.4363 13.4832 19.4305C13.4921 19.4305 13.5011 19.4305 13.5101 19.4305C13.7252 19.4305 13.9398 19.4305 14.1548 19.4305H14.1543Z" fill="#283252"/>
<path d="M11.4554 17.7108C11.6747 17.7108 11.894 17.7093 12.1133 17.7108C12.3332 17.713 12.4833 17.8525 12.4848 18.0496C12.4859 18.2472 12.3385 18.391 12.1176 18.3926C11.6742 18.3963 11.2313 18.3963 10.7879 18.3926C10.567 18.3905 10.4233 18.2483 10.4254 18.047C10.4275 17.8483 10.5755 17.7124 10.7974 17.7108C11.0168 17.7087 11.2361 17.7108 11.4554 17.7108Z" fill="#283252"/>
<path d="M11.4623 20.1138C11.243 20.1138 11.0236 20.1159 10.8043 20.1133C10.5718 20.1101 10.4249 19.9743 10.4254 19.7698C10.4265 19.5663 10.576 19.4316 10.808 19.4305C11.2377 19.4289 11.6673 19.4289 12.0975 19.4305C12.33 19.431 12.4817 19.5653 12.4849 19.7671C12.488 19.9696 12.3374 20.1075 12.107 20.1138C12.098 20.1138 12.089 20.1138 12.0801 20.1138C11.874 20.1138 11.6684 20.1138 11.4623 20.1138Z" fill="#283252"/>
<path d="M7.26779 28.2812H7.69361L8.77979 30.9841L9.86369 28.2812H10.2918L8.94374 31.5967H8.61128L7.26779 28.2812ZM7.12889 28.2812H7.50461L7.56609 30.3033V31.5967H7.12889V28.2812ZM10.0527 28.2812H10.4284V31.5967H9.9912V30.3033L10.0527 28.2812ZM11.6776 29.1329V31.5967H11.254V29.1329H11.6776ZM11.2221 28.4793C11.2221 28.411 11.2426 28.3533 11.2836 28.3063C11.3261 28.2592 11.3884 28.2357 11.4703 28.2357C11.5508 28.2357 11.6123 28.2592 11.6548 28.3063C11.6988 28.3533 11.7208 28.411 11.7208 28.4793C11.7208 28.5446 11.6988 28.6008 11.6548 28.6478C11.6123 28.6934 11.5508 28.7162 11.4703 28.7162C11.3884 28.7162 11.3261 28.6934 11.2836 28.6478C11.2426 28.6008 11.2221 28.5446 11.2221 28.4793ZM13.4231 31.2961C13.5233 31.2961 13.6159 31.2756 13.7009 31.2346C13.7859 31.1936 13.8558 31.1375 13.9104 31.0661C13.9651 30.9933 13.9962 30.9105 14.0038 30.8179H14.4045C14.397 30.9637 14.3476 31.0995 14.2565 31.2255C14.167 31.35 14.0493 31.4509 13.9036 31.5284C13.7578 31.6043 13.5977 31.6422 13.4231 31.6422C13.2379 31.6422 13.0762 31.6096 12.9381 31.5443C12.8015 31.479 12.6876 31.3895 12.5965 31.2756C12.507 31.1618 12.4394 31.0312 12.3939 30.884C12.3498 30.7352 12.3278 30.5781 12.3278 30.4126V30.317C12.3278 30.1515 12.3498 29.9951 12.3939 29.8479C12.4394 29.6991 12.507 29.5678 12.5965 29.4539C12.6876 29.3401 12.8015 29.2505 12.9381 29.1852C13.0762 29.12 13.2379 29.0873 13.4231 29.0873C13.6159 29.0873 13.7844 29.1268 13.9286 29.2057C14.0728 29.2832 14.1859 29.3894 14.2679 29.5245C14.3514 29.6581 14.397 29.8099 14.4045 29.9799H14.0038C13.9962 29.8782 13.9673 29.7864 13.9172 29.7044C13.8687 29.6224 13.8019 29.5572 13.7169 29.5086C13.6334 29.4585 13.5355 29.4334 13.4231 29.4334C13.2941 29.4334 13.1855 29.4592 13.0975 29.5109C13.011 29.561 12.9419 29.6293 12.8903 29.7158C12.8402 29.8008 12.8037 29.8957 12.781 30.0004C12.7597 30.1037 12.7491 30.2092 12.7491 30.317V30.4126C12.7491 30.5204 12.7597 30.6266 12.781 30.7314C12.8022 30.8361 12.8379 30.931 12.888 31.016C12.9396 31.101 13.0087 31.1693 13.0952 31.221C13.1833 31.2711 13.2926 31.2961 13.4231 31.2961ZM15.3827 29.52V31.5967H14.9615V29.1329H15.3713L15.3827 29.52ZM16.1524 29.1192L16.1501 29.5109C16.1152 29.5033 16.0818 29.4987 16.0499 29.4972C16.0195 29.4942 15.9846 29.4926 15.9452 29.4926C15.848 29.4926 15.7622 29.5078 15.6879 29.5382C15.6135 29.5685 15.5505 29.6111 15.4989 29.6657C15.4472 29.7204 15.4063 29.7856 15.3759 29.8615C15.347 29.9359 15.3281 30.0179 15.319 30.1075L15.2006 30.1758C15.2006 30.027 15.215 29.8873 15.2438 29.7568C15.2742 29.6262 15.3205 29.5109 15.3827 29.4107C15.445 29.309 15.5239 29.23 15.6195 29.1739C15.7167 29.1162 15.8321 29.0873 15.9657 29.0873C15.996 29.0873 16.0309 29.0911 16.0704 29.0987C16.1099 29.1048 16.1372 29.1116 16.1524 29.1192ZM16.4679 30.3921V30.3397C16.4679 30.1621 16.4937 29.9974 16.5453 29.8456C16.597 29.6923 16.6713 29.5594 16.7685 29.4471C16.8657 29.3332 16.9833 29.2452 17.1214 29.183C17.2596 29.1192 17.4144 29.0873 17.586 29.0873C17.759 29.0873 17.9146 29.1192 18.0528 29.183C18.1924 29.2452 18.3109 29.3332 18.408 29.4471C18.5067 29.5594 18.5818 29.6923 18.6334 29.8456C18.6851 29.9974 18.7109 30.1621 18.7109 30.3397V30.3921C18.7109 30.5697 18.6851 30.7344 18.6334 30.8862C18.5818 31.038 18.5067 31.1709 18.408 31.2847C18.3109 31.3971 18.1932 31.4851 18.0551 31.5489C17.9184 31.6111 17.7636 31.6422 17.5905 31.6422C17.4175 31.6422 17.2619 31.6111 17.1237 31.5489C16.9856 31.4851 16.8672 31.3971 16.7685 31.2847C16.6713 31.1709 16.597 31.038 16.5453 30.8862C16.4937 30.7344 16.4679 30.5697 16.4679 30.3921ZM16.8892 30.3397V30.3921C16.8892 30.5151 16.9036 30.6312 16.9324 30.7405C16.9613 30.8483 17.0046 30.9439 17.0622 31.0274C17.1214 31.1109 17.1951 31.1769 17.2831 31.2255C17.3712 31.2726 17.4736 31.2961 17.5905 31.2961C17.7059 31.2961 17.8069 31.2726 17.8934 31.2255C17.9814 31.1769 18.0543 31.1109 18.112 31.0274C18.1697 30.9439 18.2129 30.8483 18.2418 30.7405C18.2721 30.6312 18.2873 30.5151 18.2873 30.3921V30.3397C18.2873 30.2183 18.2721 30.1037 18.2418 29.9959C18.2129 29.8866 18.1689 29.7902 18.1097 29.7067C18.052 29.6217 17.9792 29.5549 17.8911 29.5063C17.8046 29.4577 17.7029 29.4334 17.586 29.4334C17.4706 29.4334 17.3689 29.4577 17.2808 29.5063C17.1943 29.5549 17.1214 29.6217 17.0622 29.7067C17.0046 29.7902 16.9613 29.8866 16.9324 29.9959C16.9036 30.1037 16.8892 30.2183 16.8892 30.3397ZM5.91617 36.2392V36.5967H4.16053V36.2392H5.91617ZM4.24934 33.2812V36.5967H3.80986V33.2812H4.24934ZM5.68391 34.7067V35.0642H4.16053V34.7067H5.68391ZM5.8934 33.2812V33.641H4.16053V33.2812H5.8934ZM6.8989 34.6224V36.5967H6.47536V34.1329H6.87613L6.8989 34.6224ZM6.81237 35.2714L6.61654 35.2646C6.61806 35.0961 6.64007 34.9405 6.68258 34.7978C6.72509 34.6536 6.78809 34.5283 6.87158 34.4221C6.95507 34.3158 7.05906 34.2338 7.18354 34.1761C7.30802 34.1169 7.45224 34.0873 7.61619 34.0873C7.73156 34.0873 7.83783 34.104 7.93498 34.1374C8.03214 34.1693 8.11639 34.2202 8.18774 34.29C8.25909 34.3598 8.3145 34.4494 8.35397 34.5587C8.39344 34.668 8.41317 34.8001 8.41317 34.9549V36.5967H7.99191V34.9754C7.99191 34.8464 7.9699 34.7431 7.92588 34.6657C7.88337 34.5883 7.82265 34.5321 7.74371 34.4972C7.66477 34.4608 7.57217 34.4425 7.4659 34.4425C7.34142 34.4425 7.23743 34.4646 7.15394 34.5086C7.07045 34.5526 7.00365 34.6133 6.95355 34.6908C6.90346 34.7682 6.86703 34.857 6.84425 34.9572C6.823 35.0558 6.81237 35.1606 6.81237 35.2714ZM8.40862 35.0391L8.12626 35.1257C8.12778 34.9906 8.14979 34.8608 8.1923 34.7363C8.23632 34.6118 8.29932 34.501 8.3813 34.4038C8.46479 34.3067 8.56726 34.23 8.6887 34.1739C8.81015 34.1162 8.94905 34.0873 9.10541 34.0873C9.23748 34.0873 9.35437 34.1048 9.45609 34.1397C9.55931 34.1746 9.64584 34.2285 9.71567 34.3014C9.78702 34.3727 9.84091 34.4646 9.87735 34.5769C9.91378 34.6892 9.932 34.8228 9.932 34.9777V36.5967H9.50846V34.9731C9.50846 34.835 9.48645 34.7279 9.44242 34.652C9.39992 34.5746 9.33919 34.5207 9.26025 34.4904C9.18283 34.4585 9.09023 34.4425 8.98245 34.4425C8.88985 34.4425 8.80787 34.4585 8.73652 34.4904C8.66517 34.5222 8.60521 34.5663 8.55663 34.6224C8.50805 34.6771 8.47086 34.7401 8.44505 34.8114C8.42076 34.8828 8.40862 34.9587 8.40862 35.0391ZM11.0741 34.6065V37.544H10.6506V34.1329H11.0377L11.0741 34.6065ZM12.7341 35.3443V35.3921C12.7341 35.5712 12.7129 35.7375 12.6704 35.8908C12.6279 36.0426 12.5656 36.1747 12.4836 36.287C12.4032 36.3993 12.3038 36.4866 12.1853 36.5489C12.0669 36.6111 11.9311 36.6422 11.7777 36.6422C11.6214 36.6422 11.4832 36.6164 11.3633 36.5648C11.2434 36.5132 11.1417 36.438 11.0582 36.3394C10.9747 36.2407 10.9079 36.1223 10.8578 35.9841C10.8092 35.846 10.7758 35.6904 10.7576 35.5173V35.2623C10.7758 35.0801 10.81 34.9169 10.8601 34.7727C10.9102 34.6285 10.9762 34.5055 11.0582 34.4038C11.1417 34.3006 11.2426 34.2224 11.361 34.1693C11.4794 34.1146 11.6161 34.0873 11.7709 34.0873C11.9258 34.0873 12.0631 34.1177 12.1831 34.1784C12.303 34.2376 12.404 34.3226 12.4859 34.4334C12.5679 34.5443 12.6294 34.6771 12.6704 34.8319C12.7129 34.9853 12.7341 35.156 12.7341 35.3443ZM12.3106 35.3921V35.3443C12.3106 35.2213 12.2977 35.1059 12.2719 34.9982C12.2461 34.8889 12.2058 34.7932 12.1512 34.7112C12.0981 34.6278 12.0297 34.5625 11.9463 34.5154C11.8628 34.4668 11.7633 34.4425 11.648 34.4425C11.5417 34.4425 11.4491 34.4608 11.3701 34.4972C11.2927 34.5336 11.2267 34.583 11.172 34.6452C11.1174 34.7059 11.0726 34.7758 11.0377 34.8547C11.0043 34.9321 10.9792 35.0126 10.9625 35.0961V35.6858C10.9929 35.7921 11.0354 35.8923 11.0901 35.9864C11.1447 36.079 11.2176 36.1542 11.3087 36.2119C11.3998 36.268 11.5144 36.2961 11.6525 36.2961C11.7664 36.2961 11.8643 36.2726 11.9463 36.2255C12.0297 36.1769 12.0981 36.1109 12.1512 36.0274C12.2058 35.9439 12.2461 35.8483 12.2719 35.7405C12.2977 35.6312 12.3106 35.5151 12.3106 35.3921ZM13.7761 34.52V36.5967H13.3548V34.1329H13.7647L13.7761 34.52ZM14.5457 34.1192L14.5434 34.5109C14.5085 34.5033 14.4751 34.4987 14.4433 34.4972C14.4129 34.4942 14.378 34.4926 14.3385 34.4926C14.2414 34.4926 14.1556 34.5078 14.0812 34.5382C14.0068 34.5685 13.9438 34.6111 13.8922 34.6657C13.8406 34.7204 13.7996 34.7856 13.7692 34.8615C13.7404 34.9359 13.7214 35.0179 13.7123 35.1075L13.5939 35.1758C13.5939 35.027 13.6083 34.8873 13.6372 34.7568C13.6675 34.6262 13.7138 34.5109 13.7761 34.4107C13.8383 34.309 13.9172 34.23 14.0129 34.1739C14.11 34.1162 14.2254 34.0873 14.359 34.0873C14.3894 34.0873 14.4243 34.0911 14.4637 34.0987C14.5032 34.1048 14.5305 34.1116 14.5457 34.1192ZM15.9953 36.6422C15.8237 36.6422 15.6681 36.6134 15.5285 36.5557C15.3903 36.4965 15.2711 36.4138 15.171 36.3075C15.0723 36.2012 14.9964 36.0752 14.9432 35.9295C14.8901 35.7838 14.8635 35.6244 14.8635 35.4513V35.3557C14.8635 35.1553 14.8931 34.9769 14.9523 34.8205C15.0116 34.6627 15.092 34.5291 15.1937 34.4198C15.2954 34.3105 15.4108 34.2277 15.5398 34.1716C15.6689 34.1154 15.8025 34.0873 15.9406 34.0873C16.1167 34.0873 16.2685 34.1177 16.396 34.1784C16.5251 34.2391 16.6306 34.3241 16.7125 34.4334C16.7945 34.5412 16.8552 34.6687 16.8947 34.816C16.9342 34.9617 16.9539 35.1211 16.9539 35.2942V35.4832H15.114V35.1393H16.5327V35.1075C16.5266 34.9982 16.5038 34.8919 16.4643 34.7887C16.4264 34.6854 16.3657 34.6004 16.2822 34.5336C16.1987 34.4668 16.0848 34.4334 15.9406 34.4334C15.845 34.4334 15.7569 34.4539 15.6765 34.4949C15.596 34.5344 15.5269 34.5936 15.4693 34.6725C15.4116 34.7515 15.3668 34.8479 15.3349 34.9617C15.303 35.0756 15.2871 35.2069 15.2871 35.3557V35.4513C15.2871 35.5682 15.303 35.6783 15.3349 35.7815C15.3683 35.8832 15.4161 35.9728 15.4784 36.0502C15.5421 36.1276 15.6188 36.1883 15.7083 36.2323C15.7994 36.2764 15.9027 36.2984 16.018 36.2984C16.1668 36.2984 16.2928 36.268 16.396 36.2073C16.4993 36.1466 16.5896 36.0654 16.667 35.9637L16.922 36.1663C16.8689 36.2468 16.8014 36.3234 16.7194 36.3963C16.6374 36.4692 16.5365 36.5284 16.4165 36.5739C16.2981 36.6195 16.1577 36.6422 15.9953 36.6422ZM18.9636 35.9432C18.9636 35.8824 18.95 35.8263 18.9226 35.7747C18.8968 35.7215 18.8429 35.6737 18.761 35.6312C18.6805 35.5872 18.5591 35.5492 18.3966 35.5173C18.26 35.4885 18.1363 35.4543 18.0255 35.4149C17.9162 35.3754 17.8228 35.3276 17.7454 35.2714C17.6695 35.2152 17.611 35.1492 17.57 35.0733C17.529 34.9974 17.5086 34.9086 17.5086 34.8069C17.5086 34.7097 17.5298 34.6179 17.5723 34.5314C17.6163 34.4448 17.6778 34.3682 17.7568 34.3014C17.8372 34.2346 17.9336 34.1822 18.0459 34.1442C18.1583 34.1063 18.2835 34.0873 18.4217 34.0873C18.619 34.0873 18.7875 34.1222 18.9272 34.1921C19.0668 34.2619 19.1739 34.3553 19.2483 34.4722C19.3226 34.5875 19.3598 34.7158 19.3598 34.857H18.9386C18.9386 34.7887 18.9181 34.7226 18.8771 34.6589C18.8376 34.5936 18.7792 34.5397 18.7018 34.4972C18.6259 34.4547 18.5325 34.4334 18.4217 34.4334C18.3048 34.4334 18.2099 34.4517 18.137 34.4881C18.0657 34.523 18.0133 34.5678 17.9799 34.6224C17.948 34.6771 17.9321 34.7348 17.9321 34.7955C17.9321 34.841 17.9397 34.882 17.9549 34.9185C17.9716 34.9534 18.0004 34.986 18.0414 35.0164C18.0824 35.0452 18.1401 35.0725 18.2145 35.0984C18.2888 35.1242 18.3837 35.15 18.4991 35.1758C18.701 35.2213 18.8672 35.276 18.9978 35.3397C19.1283 35.4035 19.2255 35.4817 19.2892 35.5743C19.353 35.6669 19.3849 35.7792 19.3849 35.9113C19.3849 36.0191 19.3621 36.1177 19.3166 36.2073C19.2725 36.2969 19.208 36.3743 19.123 36.4396C19.0395 36.5033 18.9393 36.5534 18.8224 36.5899C18.7071 36.6248 18.5773 36.6422 18.4331 36.6422C18.216 36.6422 18.0323 36.6035 17.882 36.5261C17.7317 36.4487 17.6179 36.3485 17.5404 36.2255C17.463 36.1026 17.4243 35.9728 17.4243 35.8361H17.8478C17.8539 35.9515 17.8873 36.0433 17.948 36.1117C18.0088 36.1785 18.0831 36.2263 18.1712 36.2551C18.2592 36.2824 18.3465 36.2961 18.4331 36.2961C18.5484 36.2961 18.6448 36.2809 18.7222 36.2506C18.8012 36.2202 18.8612 36.1785 18.9021 36.1253C18.9431 36.0722 18.9636 36.0115 18.9636 35.9432ZM21.4743 36.1754V34.9071C21.4743 34.8099 21.4545 34.7257 21.4151 34.6543C21.3771 34.5815 21.3194 34.5253 21.242 34.4858C21.1646 34.4463 21.069 34.4266 20.9551 34.4266C20.8488 34.4266 20.7555 34.4448 20.675 34.4813C20.5961 34.5177 20.5338 34.5655 20.4883 34.6247C20.4443 34.6839 20.4223 34.7477 20.4223 34.816H20.001C20.001 34.7279 20.0238 34.6407 20.0693 34.5541C20.1149 34.4676 20.1801 34.3894 20.2651 34.3196C20.3517 34.2482 20.4549 34.1921 20.5748 34.1511C20.6963 34.1086 20.8314 34.0873 20.9802 34.0873C21.1593 34.0873 21.3172 34.1177 21.4538 34.1784C21.5919 34.2391 21.6997 34.331 21.7771 34.4539C21.8561 34.5754 21.8955 34.7279 21.8955 34.9116V36.0593C21.8955 36.1413 21.9024 36.2286 21.916 36.3212C21.9312 36.4138 21.9532 36.4935 21.9821 36.5602V36.5967H21.5426C21.5213 36.5481 21.5046 36.4836 21.4925 36.4031C21.4804 36.3212 21.4743 36.2453 21.4743 36.1754ZM21.5472 35.1029L21.5517 35.3989H21.1259C21.006 35.3989 20.8989 35.4088 20.8048 35.4285C20.7107 35.4467 20.6318 35.4748 20.568 35.5128C20.5042 35.5507 20.4557 35.5986 20.4223 35.6562C20.3889 35.7124 20.3722 35.7784 20.3722 35.8543C20.3722 35.9318 20.3896 36.0024 20.4245 36.0661C20.4595 36.1299 20.5118 36.1807 20.5817 36.2187C20.653 36.2551 20.7403 36.2733 20.8435 36.2733C20.9726 36.2733 21.0864 36.246 21.1851 36.1914C21.2838 36.1367 21.3619 36.0699 21.4196 35.991C21.4788 35.912 21.5107 35.8354 21.5153 35.761L21.6952 35.9637C21.6845 36.0274 21.6557 36.098 21.6086 36.1754C21.5616 36.2528 21.4986 36.3272 21.4196 36.3986C21.3422 36.4684 21.2496 36.5269 21.1418 36.5739C21.0356 36.6195 20.9156 36.6422 20.782 36.6422C20.6151 36.6422 20.4686 36.6096 20.3426 36.5443C20.2181 36.479 20.1209 36.3917 20.0511 36.2824C19.9828 36.1716 19.9486 36.0479 19.9486 35.9113C19.9486 35.7792 19.9744 35.6631 20.026 35.5629C20.0777 35.4612 20.152 35.3769 20.2492 35.3101C20.3464 35.2418 20.4633 35.1902 20.5999 35.1553C20.7365 35.1204 20.8891 35.1029 21.0576 35.1029H21.5472Z" fill="#283252"/>
</svg>
