<svg width="149" height="52" viewBox="0 0 149 52" fill="none" xmlns="http://www.w3.org/2000/svg">
<g clip-path="url(#clip0_353_5540)">
<path d="M38.2858 0H46.9045V51.0685H37.5554L8.62217 13.8072V51.0685H0V0H8.62217L38.2858 38.1369V0Z" fill="#22363E"/>
<path d="M74.3839 0V8.1099H47.1294V21.6264H71.6079V29.2967H47.1294V42.9586H75.2596V51.0685H38.5107V0H74.3839Z" fill="#22363E"/>
<path d="M91.3444 51.0685L70.8153 0H80.4586L96.3876 38.6769L91.3444 51.0719V51.0685Z" fill="#22363E"/>
<path d="M111.936 0H121.579L142.108 51.0685H132.465L116.757 12.9315L101.05 51.0685H91.4067L111.936 0Z" fill="white"/>
<path d="M132.61 3.65852C132.905 3.20163 133.192 2.74819 133.479 2.30168C133.766 1.85517 134.05 1.4052 134.338 0.955225H131.987V0.290649H135.487C135.199 0.726777 134.916 1.1629 134.635 1.59557C134.351 2.02824 134.064 2.4609 133.77 2.89011C134.026 2.94895 134.268 3.03895 134.493 3.17048C134.718 3.29855 134.912 3.45777 135.078 3.64814C135.241 3.83851 135.373 4.05312 135.466 4.29195C135.559 4.53078 135.604 4.79038 135.604 5.07075C135.604 5.38573 135.542 5.67994 135.421 5.95685C135.3 6.23375 135.134 6.47259 134.926 6.68027C134.718 6.88795 134.476 7.05063 134.196 7.17524C133.915 7.29638 133.621 7.35869 133.306 7.35869C132.97 7.35869 132.655 7.29292 132.368 7.16139C132.077 7.02986 131.828 6.84987 131.62 6.61796C131.7 6.53835 131.78 6.4622 131.866 6.38259C131.953 6.30298 132.036 6.22683 132.112 6.14722C132.254 6.31336 132.427 6.4449 132.628 6.54874C132.828 6.65258 133.05 6.70449 133.292 6.70449C133.514 6.70449 133.725 6.66296 133.926 6.57643C134.126 6.48989 134.3 6.37221 134.452 6.22337C134.601 6.07453 134.718 5.90147 134.805 5.70417C134.891 5.50687 134.933 5.29919 134.933 5.07767C134.933 4.85614 134.891 4.64846 134.805 4.45117C134.718 4.25387 134.601 4.08427 134.452 3.94235C134.303 3.80044 134.126 3.68621 133.926 3.59968C133.725 3.51315 133.514 3.47161 133.292 3.47161C133.05 3.47161 132.822 3.54084 132.607 3.67583L132.61 3.65852Z" fill="white"/>
<path d="M136.934 5.16083C136.934 4.64509 137.044 4.16397 137.262 3.71745C137.48 3.27094 137.761 2.85212 138.104 2.46791C138.446 2.08025 138.83 1.72027 139.253 1.38452C139.675 1.04877 140.087 0.733788 140.488 0.439575C140.561 0.526108 140.63 0.612642 140.696 0.702636C140.765 0.792631 140.835 0.879164 140.904 0.965697C140.295 1.37413 139.8 1.75834 139.419 2.11832C139.038 2.4783 138.74 2.8002 138.533 3.07711C138.619 2.9975 138.72 2.93519 138.837 2.88327C138.955 2.83482 139.083 2.80712 139.218 2.80712C139.533 2.80712 139.831 2.86597 140.108 2.98365C140.388 3.10134 140.63 3.26402 140.838 3.46824C141.046 3.67246 141.208 3.91129 141.333 4.1882C141.454 4.4651 141.516 4.75932 141.516 5.0743C141.516 5.38928 141.454 5.68349 141.333 5.9604C141.212 6.2373 141.046 6.47613 140.838 6.68035C140.63 6.88457 140.388 7.04725 140.108 7.1684C139.827 7.28955 139.533 7.35185 139.218 7.35185C138.903 7.35185 138.619 7.29301 138.342 7.17878C138.065 7.06456 137.827 6.9088 137.622 6.71151C137.418 6.51421 137.255 6.2823 137.127 6.01578C137.003 5.74579 136.937 5.46197 136.93 5.16429L136.934 5.16083ZM137.619 5.0743C137.619 5.29582 137.66 5.50696 137.744 5.7008C137.827 5.89809 137.937 6.0677 138.083 6.21654C138.225 6.36191 138.394 6.4796 138.588 6.56613C138.782 6.65266 138.99 6.6942 139.211 6.6942C139.433 6.6942 139.644 6.65266 139.845 6.56613C140.045 6.4796 140.218 6.36537 140.371 6.21654C140.52 6.07116 140.637 5.89809 140.724 5.7008C140.81 5.5035 140.852 5.29582 140.852 5.0743C140.852 4.85277 140.81 4.64509 140.724 4.4478C140.637 4.2505 140.52 4.08089 140.371 3.93898C140.222 3.79707 140.045 3.68284 139.845 3.59631C139.644 3.50978 139.433 3.46824 139.211 3.46824C138.99 3.46824 138.782 3.50978 138.588 3.59631C138.394 3.68284 138.228 3.79707 138.083 3.93898C137.941 4.08089 137.827 4.2505 137.744 4.4478C137.66 4.64509 137.619 4.85277 137.619 5.0743Z" fill="white"/>
<path d="M142.385 3.75555C142.385 3.27096 142.454 2.81061 142.589 2.37794C142.724 1.94527 142.922 1.56799 143.174 1.24608C143.427 0.92418 143.732 0.671503 144.085 0.484591C144.438 0.29768 144.836 0.204224 145.282 0.204224C145.729 0.204224 146.123 0.301141 146.48 0.494975C146.833 0.68881 147.134 0.94841 147.38 1.27724C147.626 1.60606 147.816 1.98681 147.944 2.41948C148.072 2.85214 148.138 3.3125 148.138 3.79708C148.138 4.32667 148.055 4.80779 147.892 5.24738C147.726 5.68351 147.511 6.05733 147.241 6.36885C146.971 6.68037 146.663 6.92267 146.314 7.09227C145.964 7.26534 145.601 7.34841 145.23 7.34841C144.86 7.34841 144.5 7.25841 144.157 7.08189C143.815 6.90536 143.51 6.65614 143.247 6.34116C142.984 6.02618 142.773 5.6489 142.621 5.20931C142.468 4.76972 142.389 4.28513 142.389 3.75555H142.385ZM143.06 3.75555C143.06 4.17783 143.119 4.56896 143.233 4.92548C143.347 5.282 143.507 5.59352 143.704 5.85312C143.905 6.11271 144.137 6.32039 144.4 6.46923C144.663 6.61807 144.943 6.69422 145.237 6.69422C145.532 6.69422 145.802 6.62153 146.068 6.47962C146.335 6.3377 146.573 6.13694 146.778 5.87734C146.982 5.61774 147.145 5.31315 147.273 4.95317C147.397 4.59665 147.459 4.20552 147.459 3.78324C147.459 3.44749 147.418 3.10482 147.331 2.75869C147.245 2.41255 147.11 2.09757 146.93 1.81374C146.75 1.52991 146.521 1.30147 146.248 1.12148C145.975 0.941487 145.656 0.854954 145.282 0.854954C144.908 0.854954 144.587 0.941487 144.306 1.11109C144.026 1.28416 143.797 1.50915 143.614 1.78605C143.431 2.06642 143.296 2.37794 143.202 2.72407C143.109 3.07021 143.064 3.41288 143.064 3.74863L143.06 3.75555Z" fill="white"/>
</g>
<defs>
<clipPath id="clip0_353_5540">
<rect width="148.138" height="51.0719" fill="white"/>
</clipPath>
</defs>
</svg>
