<svg width="27" height="41" viewBox="0 0 27 41" fill="none" xmlns="http://www.w3.org/2000/svg">
<path d="M13.7862 10.123C14.7317 10.123 15.6517 10.123 16.5723 10.123C17.0416 10.123 17.0834 10.1542 17.2007 10.6002C17.2509 10.6044 17.1833 21.2061 17.1833 24.1951C17.1833 24.1951 17.6488 24.2115 17.801 24.2062C18.0124 24.1983 18.1995 24.2332 18.2745 24.4652C18.348 24.6914 18.2037 24.8172 18.0441 24.9318H8.92852C8.84767 24.8314 8.73352 24.7426 8.69388 24.6285C8.62518 24.4303 8.79746 24.2316 9.02471 24.2126C9.12247 24.2041 9.51513 24.2078 9.64672 24.2078C9.64672 24.1079 9.64672 24.0197 9.64672 23.932C9.64672 19.5155 9.64672 15.0996 9.64672 10.6832C9.64672 10.225 9.74766 10.1225 10.2021 10.1225C11.0672 10.1225 11.9318 10.1225 12.7969 10.1225H13.7857L13.7862 10.123ZM16.4286 24.1962V10.8639H10.3887V24.1914H12.0777C12.0777 24.0995 12.0777 24.0234 12.0777 23.9473C12.0777 23.5324 12.074 23.1176 12.0793 22.7027C12.083 22.3931 12.2093 22.2683 12.5174 22.2667C13.1151 22.2636 13.7128 22.263 14.3099 22.2667C14.6101 22.2683 14.7438 22.4041 14.747 22.7085C14.7512 23.1303 14.7475 23.552 14.7486 23.9742C14.7486 24.0482 14.7555 24.1222 14.7586 24.1962H16.4281H16.4286ZM14.0066 24.1941V23.0013H12.8218V24.2084C12.8989 24.2047 13.93 24.1941 14.0066 24.1941Z" fill="#D9D9D9"/>
<path d="M12.3081 15.5911C12.3081 15.6825 12.3155 15.7745 12.3065 15.8649C12.2865 16.062 12.1601 16.1714 11.9741 16.1851C11.7955 16.1983 11.6412 16.1058 11.6169 15.9251C11.5873 15.7053 11.5883 15.477 11.6132 15.2566C11.6333 15.0795 11.8198 14.9596 11.9847 14.9855C12.1702 15.0151 12.2917 15.1208 12.3081 15.3174C12.3155 15.4083 12.3092 15.4997 12.3092 15.5911H12.3081Z" fill="#D9D9D9"/>
<path d="M13.0427 15.57C13.049 15.4722 13.0474 15.3728 13.0638 15.2767C13.095 15.0906 13.2245 14.9923 13.3999 14.9865C13.577 14.9807 13.727 15.0727 13.7487 15.2571C13.7741 15.4706 13.7751 15.691 13.7519 15.9045C13.7323 16.0847 13.5548 16.2089 13.3899 16.1877C13.2044 16.1634 13.077 16.063 13.0585 15.8648C13.0495 15.7676 13.0569 15.6688 13.0569 15.5705C13.0522 15.5705 13.0474 15.5705 13.0421 15.5705L13.0427 15.57Z" fill="#D9D9D9"/>
<path d="M15.2184 15.5853C15.2184 15.6836 15.2279 15.7829 15.2163 15.8797C15.1936 16.0667 15.0683 16.1703 14.8923 16.1846C14.7142 16.1988 14.5562 16.1117 14.5324 15.9299C14.5034 15.7037 14.5034 15.468 14.5324 15.2418C14.5557 15.0595 14.7142 14.9728 14.8918 14.9871C15.0672 15.0008 15.1936 15.1044 15.2163 15.2915C15.2279 15.3882 15.2184 15.4875 15.2184 15.5858V15.5853Z" fill="#D9D9D9"/>
<path d="M12.3076 20.4504C12.3076 20.5418 12.316 20.6338 12.306 20.7241C12.2838 20.9202 12.1575 21.0291 11.9704 21.0407C11.7907 21.0518 11.6391 20.9567 11.6158 20.7764C11.5873 20.5566 11.5878 20.3278 11.6147 20.1079C11.6369 19.9261 11.7891 19.8411 11.9683 19.8395C12.1416 19.8379 12.2854 19.9758 12.3055 20.156C12.316 20.2533 12.3076 20.3521 12.3076 20.4504Z" fill="#D9D9D9"/>
<path d="M13.7889 20.4388C13.7757 20.5566 13.7757 20.6782 13.7456 20.7918C13.7006 20.9625 13.5675 21.0486 13.3984 21.0407C13.2213 21.0328 13.085 20.935 13.0654 20.7484C13.0459 20.5608 13.0464 20.3695 13.0575 20.1814C13.0691 19.9811 13.2092 19.849 13.3915 19.8374C13.5733 19.8257 13.736 19.9616 13.7667 20.1645C13.7799 20.2538 13.7688 20.3463 13.7688 20.4377C13.7757 20.4377 13.782 20.4388 13.7889 20.4393V20.4388Z" fill="#D9D9D9"/>
<path d="M15.2195 20.4509C15.2195 20.5423 15.2279 20.6343 15.2179 20.7241C15.1957 20.9207 15.0689 21.029 14.8818 21.0396C14.7026 21.0497 14.551 20.9566 14.5288 20.7743C14.5018 20.5545 14.5023 20.3262 14.5288 20.1058C14.5504 19.9224 14.7042 19.831 14.8818 19.8405C15.0673 19.8506 15.1973 19.9578 15.2184 20.1555C15.229 20.2527 15.22 20.3515 15.22 20.4498L15.2195 20.4509Z" fill="#D9D9D9"/>
<path d="M12.3097 13.167C12.3097 13.251 12.316 13.3361 12.3086 13.4196C12.2896 13.621 12.1585 13.7478 11.9709 13.7557C11.7849 13.7636 11.6232 13.6474 11.6026 13.4534C11.582 13.2595 11.5825 13.0602 11.602 12.8658C11.6216 12.6713 11.7817 12.554 11.9677 12.5603C12.1559 12.5667 12.2891 12.693 12.3086 12.8932C12.3171 12.9836 12.3102 13.0756 12.3107 13.1665L12.3097 13.167Z" fill="#D9D9D9"/>
<path d="M12.3102 18.0205C12.3102 18.1045 12.3165 18.1896 12.3091 18.2731C12.2906 18.4744 12.1601 18.6018 11.9725 18.6108C11.7854 18.6192 11.6237 18.504 11.6031 18.3106C11.582 18.1167 11.5825 17.9174 11.6015 17.723C11.6205 17.5285 11.7807 17.4101 11.9662 17.4159C12.1548 17.4217 12.2885 17.548 12.3081 17.7478C12.3171 17.8382 12.3097 17.9301 12.3097 18.021C12.3097 18.021 12.3097 18.021 12.3102 18.021V18.0205Z" fill="#D9D9D9"/>
<path d="M15.2189 18.0289C15.2189 18.1198 15.229 18.2123 15.2168 18.3022C15.1925 18.485 15.082 18.5923 14.8971 18.6081C14.7132 18.6235 14.5594 18.5416 14.534 18.3624C14.5018 18.1367 14.4997 17.9005 14.5308 17.6749C14.5567 17.4862 14.7137 17.3985 14.9076 17.4196C15.0916 17.4397 15.1988 17.5517 15.2184 17.7351C15.229 17.8323 15.22 17.9312 15.22 18.0295C15.22 18.0295 15.2194 18.0295 15.2189 18.0295V18.0289Z" fill="#D9D9D9"/>
<path d="M15.221 13.1575C15.221 13.2484 15.229 13.3408 15.2194 13.4307C15.1988 13.6236 15.0879 13.7388 14.8934 13.7536C14.6984 13.7684 14.5515 13.6717 14.5261 13.483C14.4976 13.2706 14.4981 13.0481 14.5261 12.8351C14.5509 12.6459 14.6973 12.5492 14.8923 12.5629C15.0873 12.5767 15.1988 12.6908 15.22 12.8843C15.2295 12.9741 15.2216 13.0666 15.2221 13.1575H15.221Z" fill="#D9D9D9"/>
<path d="M13.7825 18.0485C13.7757 18.1193 13.7783 18.2335 13.7524 18.3413C13.707 18.5299 13.5738 18.6229 13.3804 18.6081C13.1959 18.5939 13.0781 18.4871 13.0622 18.3032C13.0464 18.1225 13.0453 17.9386 13.0569 17.7573C13.0702 17.5512 13.2028 17.4265 13.3894 17.4164C13.5838 17.4059 13.7329 17.5274 13.7672 17.7351C13.782 17.8244 13.7773 17.9169 13.7831 18.049L13.7825 18.0485Z" fill="#D9D9D9"/>
<path d="M13.7836 13.1982C13.7757 13.2743 13.7773 13.389 13.7498 13.4957C13.7038 13.6738 13.5759 13.7642 13.3915 13.7541C13.207 13.7441 13.0828 13.6421 13.0649 13.4587C13.0464 13.2711 13.0464 13.0803 13.0591 12.8922C13.0728 12.6887 13.2107 12.5667 13.3994 12.5614C13.5875 12.5561 13.7286 12.6697 13.764 12.8695C13.781 12.9651 13.7767 13.065 13.7841 13.1987L13.7836 13.1982Z" fill="#D9D9D9"/>
<path d="M5.74721 30.2965H4.86142V29.939H5.74721C5.91876 29.939 6.05766 29.9116 6.16392 29.857C6.27019 29.8023 6.34761 29.7264 6.39619 29.6293C6.44628 29.5321 6.47133 29.4213 6.47133 29.2968C6.47133 29.183 6.44628 29.0759 6.39619 28.9758C6.34761 28.8756 6.27019 28.7951 6.16392 28.7344C6.05766 28.6721 5.91876 28.641 5.74721 28.641H4.96389V31.5967H4.52441V28.2812H5.74721C5.9977 28.2812 6.20947 28.3245 6.38253 28.411C6.55558 28.4976 6.6869 28.6175 6.77646 28.7708C6.86603 28.9226 6.91081 29.0964 6.91081 29.2923C6.91081 29.5048 6.86603 29.6862 6.77646 29.8365C6.6869 29.9868 6.55558 30.1014 6.38253 30.1803C6.20947 30.2578 5.9977 30.2965 5.74721 30.2965ZM8.47648 31.6422C8.30494 31.6422 8.14934 31.6134 8.00967 31.5557C7.87153 31.4965 7.75236 31.4138 7.65217 31.3075C7.5535 31.2012 7.47759 31.0752 7.42446 30.9295C7.37133 30.7838 7.34476 30.6244 7.34476 30.4513V30.3557C7.34476 30.1553 7.37436 29.9769 7.43357 29.8206C7.49277 29.6627 7.57323 29.5291 7.67494 29.4198C7.77665 29.3105 7.89202 29.2278 8.02106 29.1716C8.1501 29.1154 8.28369 29.0873 8.42183 29.0873C8.59792 29.0873 8.74973 29.1177 8.87725 29.1784C9.00628 29.2391 9.11179 29.3241 9.19377 29.4334C9.27574 29.5412 9.33646 29.6687 9.37593 29.816C9.4154 29.9617 9.43514 30.1211 9.43514 30.2942V30.4832H7.59524V30.1393H9.01387V30.1075C9.0078 29.9982 8.98503 29.8919 8.94556 29.7887C8.90761 29.6854 8.84689 29.6004 8.76339 29.5336C8.6799 29.4668 8.56605 29.4334 8.42183 29.4334C8.32619 29.4334 8.23814 29.4539 8.15769 29.4949C8.07723 29.5344 8.00816 29.5936 7.95047 29.6725C7.89278 29.7515 7.848 29.8479 7.81612 29.9617C7.78424 30.0756 7.7683 30.2069 7.7683 30.3557V30.4513C7.7683 30.5682 7.78424 30.6783 7.81612 30.7815C7.84952 30.8832 7.89734 30.9728 7.95958 31.0502C8.02334 31.1276 8.1 31.1883 8.18956 31.2324C8.28065 31.2764 8.38388 31.2984 8.49925 31.2984C8.64802 31.2984 8.77402 31.268 8.87725 31.2073C8.98048 31.1466 9.0708 31.0654 9.14822 30.9637L9.40326 31.1663C9.35013 31.2468 9.28257 31.3234 9.2006 31.3963C9.11862 31.4692 9.01767 31.5284 8.89774 31.5739C8.77933 31.6195 8.63891 31.6422 8.47648 31.6422ZM11.561 32.544V29.6065L11.5974 29.1329H11.9845V32.544H11.561ZM9.90552 30.3921V30.3443C9.90552 30.156 9.92753 29.9853 9.97156 29.8319C10.0156 29.6771 10.0801 29.5443 10.1651 29.4334C10.2501 29.3226 10.3526 29.2376 10.4725 29.1784C10.594 29.1177 10.7321 29.0873 10.887 29.0873C11.0418 29.0873 11.1777 29.1147 11.2946 29.1693C11.413 29.2224 11.5132 29.3006 11.5951 29.4038C11.6786 29.5056 11.7447 29.6285 11.7932 29.7727C11.8418 29.917 11.8752 30.0801 11.8934 30.2623V30.4718C11.8767 30.6525 11.8441 30.8149 11.7955 30.9591C11.7469 31.1033 11.6809 31.2263 11.5974 31.328C11.5154 31.4297 11.4145 31.5079 11.2946 31.5625C11.1761 31.6157 11.0388 31.6422 10.8824 31.6422C10.7306 31.6422 10.594 31.6111 10.4725 31.5489C10.3526 31.4866 10.2501 31.3993 10.1651 31.287C10.0816 31.1747 10.0171 31.0426 9.97156 30.8908C9.92753 30.7375 9.90552 30.5712 9.90552 30.3921ZM10.3291 30.3443V30.3921C10.3291 30.5151 10.342 30.6312 10.3678 30.7405C10.3936 30.8483 10.433 30.9439 10.4862 31.0274C10.5408 31.1109 10.6091 31.1769 10.6911 31.2255C10.7746 31.2726 10.8733 31.2961 10.9871 31.2961C11.1268 31.2961 11.2429 31.2658 11.3355 31.205C11.4297 31.1443 11.5048 31.0646 11.561 30.9659C11.6171 30.8657 11.6604 30.7587 11.6908 30.6449V30.0961C11.6741 30.0126 11.6475 29.9314 11.6111 29.8524C11.5762 29.7735 11.5306 29.7029 11.4744 29.6407C11.4183 29.5769 11.35 29.5268 11.2695 29.4904C11.1906 29.4524 11.098 29.4334 10.9917 29.4334C10.8763 29.4334 10.7769 29.4577 10.6934 29.5063C10.6099 29.5549 10.5408 29.6217 10.4862 29.7067C10.433 29.7902 10.3936 29.8866 10.3678 29.9959C10.342 30.1052 10.3291 30.2213 10.3291 30.3443ZM14.2515 31.0274V29.1329H14.6751V31.5967H14.272L14.2515 31.0274ZM14.3312 30.5082L14.5066 30.5037C14.5066 30.6676 14.4891 30.8194 14.4542 30.9591C14.4208 31.0972 14.3661 31.2172 14.2902 31.3189C14.2143 31.4206 14.1149 31.5003 13.9919 31.558C13.869 31.6141 13.7194 31.6422 13.5433 31.6422C13.4234 31.6422 13.3134 31.6248 13.2132 31.5899C13.1145 31.5549 13.0295 31.5011 12.9581 31.4282C12.8868 31.3553 12.8314 31.2604 12.7919 31.1435C12.754 31.0267 12.735 30.8862 12.735 30.7223V29.1329H13.1562V30.7268C13.1562 30.8377 13.1684 30.9295 13.1927 31.0024C13.2185 31.0737 13.2526 31.1306 13.2951 31.1732C13.3392 31.2141 13.3877 31.243 13.4409 31.2597C13.4955 31.2764 13.5517 31.2847 13.6094 31.2847C13.7885 31.2847 13.9305 31.2506 14.0352 31.1823C14.1399 31.1124 14.2151 31.0191 14.2606 30.9022C14.3077 30.7838 14.3312 30.6525 14.3312 30.5082ZM16.4229 31.6422C16.2514 31.6422 16.0958 31.6134 15.9561 31.5557C15.818 31.4965 15.6988 31.4138 15.5986 31.3075C15.4999 31.2012 15.424 31.0752 15.3709 30.9295C15.3177 30.7838 15.2912 30.6244 15.2912 30.4513V30.3557C15.2912 30.1553 15.3208 29.9769 15.38 29.8206C15.4392 29.6627 15.5197 29.5291 15.6214 29.4198C15.7231 29.3105 15.8384 29.2278 15.9675 29.1716C16.0965 29.1154 16.2301 29.0873 16.3682 29.0873C16.5443 29.0873 16.6962 29.1177 16.8237 29.1784C16.9527 29.2391 17.0582 29.3241 17.1402 29.4334C17.2222 29.5412 17.2829 29.6687 17.3224 29.816C17.3618 29.9617 17.3816 30.1211 17.3816 30.2942V30.4832H15.5417V30.1393H16.9603V30.1075C16.9542 29.9982 16.9315 29.8919 16.892 29.7887C16.854 29.6854 16.7933 29.6004 16.7098 29.5336C16.6263 29.4668 16.5125 29.4334 16.3682 29.4334C16.2726 29.4334 16.1846 29.4539 16.1041 29.4949C16.0236 29.5344 15.9546 29.5936 15.8969 29.6725C15.8392 29.7515 15.7944 29.8479 15.7625 29.9617C15.7307 30.0756 15.7147 30.2069 15.7147 30.3557V30.4513C15.7147 30.5682 15.7307 30.6783 15.7625 30.7815C15.7959 30.8832 15.8438 30.9728 15.906 31.0502C15.9698 31.1276 16.0464 31.1883 16.136 31.2324C16.2271 31.2764 16.3303 31.2984 16.4457 31.2984C16.5944 31.2984 16.7204 31.268 16.8237 31.2073C16.9269 31.1466 17.0172 31.0654 17.0946 30.9637L17.3497 31.1663C17.2965 31.2468 17.229 31.3234 17.147 31.3963C17.065 31.4692 16.9641 31.5284 16.8442 31.5739C16.7258 31.6195 16.5853 31.6422 16.4229 31.6422ZM18.378 29.6589V31.5967H17.9567V29.1329H18.3552L18.378 29.6589ZM18.2778 30.2714L18.1024 30.2646C18.1039 30.0961 18.129 29.9405 18.1776 29.7978C18.2261 29.6536 18.2945 29.5283 18.3825 29.4221C18.4706 29.3158 18.5753 29.2338 18.6967 29.1761C18.8197 29.1169 18.9556 29.0873 19.1043 29.0873C19.2258 29.0873 19.3351 29.104 19.4322 29.1374C19.5294 29.1693 19.6121 29.2209 19.6805 29.2923C19.7503 29.3636 19.8034 29.4562 19.8398 29.5701C19.8763 29.6824 19.8945 29.8198 19.8945 29.9822V31.5967H19.471V29.9777C19.471 29.8486 19.452 29.7454 19.414 29.668C19.3761 29.589 19.3207 29.5321 19.2478 29.4972C19.1749 29.4608 19.0854 29.4426 18.9791 29.4426C18.8744 29.4426 18.7787 29.4646 18.6922 29.5086C18.6072 29.5526 18.5336 29.6133 18.4713 29.6908C18.4106 29.7682 18.3628 29.857 18.3279 29.9572C18.2945 30.0559 18.2778 30.1606 18.2778 30.2714ZM19.4641 28.1446L19.7488 28.1697C19.7488 28.2805 19.7268 28.3776 19.6827 28.4611C19.6387 28.5446 19.5795 28.6091 19.5051 28.6547C19.4322 28.7002 19.3495 28.723 19.2569 28.723C19.1795 28.723 19.1157 28.7124 19.0656 28.6911C19.0155 28.6683 18.9708 28.6433 18.9313 28.616C18.8918 28.5871 18.8501 28.5621 18.806 28.5408C18.7635 28.5181 18.7104 28.5067 18.6466 28.5067C18.5829 28.5067 18.529 28.531 18.485 28.5795C18.4425 28.6281 18.4212 28.6881 18.4212 28.7594L18.1366 28.7458C18.1366 28.6349 18.1578 28.5378 18.2003 28.4543C18.2444 28.3693 18.3036 28.3032 18.378 28.2562C18.4523 28.2076 18.5351 28.1833 18.6262 28.1833C18.6914 28.1833 18.7484 28.1947 18.7969 28.2175C18.847 28.2387 18.8941 28.2638 18.9381 28.2926C18.9821 28.3199 19.0277 28.345 19.0747 28.3678C19.1218 28.389 19.1757 28.3996 19.2364 28.3996C19.3002 28.3996 19.3541 28.3754 19.3981 28.3268C19.4421 28.2767 19.4641 28.216 19.4641 28.1446ZM22.0704 31.1754V29.9071C22.0704 29.8099 22.0507 29.7257 22.0112 29.6543C21.9733 29.5815 21.9156 29.5253 21.8382 29.4858C21.7607 29.4464 21.6651 29.4266 21.5513 29.4266C21.445 29.4266 21.3516 29.4448 21.2712 29.4813C21.1922 29.5177 21.13 29.5655 21.0844 29.6247C21.0404 29.6839 21.0184 29.7477 21.0184 29.816H20.5971C20.5971 29.728 20.6199 29.6407 20.6655 29.5541C20.711 29.4676 20.7763 29.3894 20.8613 29.3196C20.9478 29.2482 21.051 29.1921 21.171 29.1511C21.2924 29.1086 21.4275 29.0873 21.5763 29.0873C21.7554 29.0873 21.9133 29.1177 22.0499 29.1784C22.1881 29.2391 22.2959 29.331 22.3733 29.4539C22.4522 29.5754 22.4917 29.728 22.4917 29.9116V31.0593C22.4917 31.1413 22.4985 31.2286 22.5122 31.3212C22.5274 31.4138 22.5494 31.4935 22.5782 31.5603V31.5967H22.1387C22.1175 31.5481 22.1008 31.4836 22.0886 31.4031C22.0765 31.3212 22.0704 31.2453 22.0704 31.1754ZM22.1433 30.1029L22.1479 30.3989H21.722C21.6021 30.3989 21.4951 30.4088 21.401 30.4285C21.3068 30.4468 21.2279 30.4748 21.1641 30.5128C21.1004 30.5507 21.0518 30.5986 21.0184 30.6562C20.985 30.7124 20.9683 30.7785 20.9683 30.8544C20.9683 30.9318 20.9858 31.0024 21.0207 31.0661C21.0556 31.1299 21.108 31.1807 21.1778 31.2187C21.2492 31.2551 21.3364 31.2733 21.4397 31.2733C21.5687 31.2733 21.6826 31.246 21.7812 31.1914C21.8799 31.1367 21.9581 31.0699 22.0158 30.991C22.075 30.912 22.1069 30.8354 22.1114 30.761L22.2913 30.9637C22.2807 31.0274 22.2518 31.098 22.2048 31.1754C22.1577 31.2528 22.0947 31.3272 22.0158 31.3986C21.9384 31.4684 21.8458 31.5269 21.738 31.5739C21.6317 31.6195 21.5118 31.6422 21.3782 31.6422C21.2112 31.6422 21.0647 31.6096 20.9387 31.5443C20.8142 31.479 20.7171 31.3918 20.6472 31.2825C20.5789 31.1716 20.5448 31.0479 20.5448 30.9113C20.5448 30.7792 20.5706 30.6631 20.6222 30.5629C20.6738 30.4612 20.7482 30.3769 20.8454 30.3101C20.9425 30.2418 21.0594 30.1902 21.196 30.1553C21.3326 30.1204 21.4852 30.1029 21.6537 30.1029H22.1433ZM6.57152 36.2392V36.5967H4.81588V36.2392H6.57152ZM4.90469 33.2812V36.5967H4.46521V33.2812H4.90469ZM6.33926 34.7067V35.0642H4.81588V34.7067H6.33926ZM6.54875 33.2812V33.641H4.81588V33.2812H6.54875ZM7.55425 34.6224V36.5967H7.13071V34.1329H7.53148L7.55425 34.6224ZM7.46772 35.2714L7.27189 35.2646C7.27341 35.0961 7.29542 34.9405 7.33793 34.7978C7.38044 34.6536 7.44344 34.5283 7.52693 34.4221C7.61042 34.3158 7.71441 34.2338 7.83889 34.1761C7.96337 34.1169 8.10759 34.0873 8.27154 34.0873C8.38691 34.0873 8.49318 34.104 8.59033 34.1374C8.68749 34.1693 8.77174 34.2202 8.84309 34.29C8.91444 34.3598 8.96985 34.4494 9.00932 34.5587C9.04879 34.668 9.06852 34.8001 9.06852 34.9549V36.5967H8.64726V34.9754C8.64726 34.8464 8.62525 34.7431 8.58123 34.6657C8.53872 34.5883 8.478 34.5321 8.39906 34.4972C8.32012 34.4608 8.22752 34.4426 8.12125 34.4426C7.99677 34.4426 7.89278 34.4646 7.80929 34.5086C7.7258 34.5526 7.659 34.6133 7.6089 34.6908C7.55881 34.7682 7.52237 34.857 7.4996 34.9572C7.47835 35.0559 7.46772 35.1606 7.46772 35.2714ZM9.06397 35.0392L8.78161 35.1257C8.78313 34.9906 8.80514 34.8608 8.84765 34.7363C8.89167 34.6118 8.95467 34.501 9.03664 34.4038C9.12014 34.3067 9.22261 34.23 9.34405 34.1739C9.4655 34.1162 9.6044 34.0873 9.76076 34.0873C9.89283 34.0873 10.0097 34.1048 10.1114 34.1397C10.2147 34.1746 10.3012 34.2285 10.371 34.3014C10.4424 34.3727 10.4963 34.4646 10.5327 34.5769C10.5691 34.6892 10.5873 34.8228 10.5873 34.9777V36.5967H10.1638V34.9731C10.1638 34.835 10.1418 34.728 10.0978 34.652C10.0553 34.5746 9.99454 34.5207 9.9156 34.4904C9.83818 34.4585 9.74558 34.4426 9.6378 34.4426C9.5452 34.4426 9.46322 34.4585 9.39187 34.4904C9.32052 34.5223 9.26056 34.5663 9.21198 34.6224C9.1634 34.6771 9.12621 34.7401 9.1004 34.8114C9.07611 34.8828 9.06397 34.9587 9.06397 35.0392ZM11.7295 34.6065V37.544H11.3059V34.1329H11.693L11.7295 34.6065ZM13.3895 35.3443V35.3921C13.3895 35.5712 13.3682 35.7375 13.3257 35.8908C13.2832 36.0426 13.221 36.1747 13.139 36.287C13.0585 36.3993 12.9591 36.4866 12.8407 36.5489C12.7223 36.6111 12.5864 36.6422 12.4331 36.6422C12.2767 36.6422 12.1386 36.6164 12.0187 36.5648C11.8987 36.5132 11.797 36.4381 11.7135 36.3394C11.63 36.2407 11.5632 36.1223 11.5132 35.9842C11.4646 35.846 11.4312 35.6904 11.413 35.5173V35.2623C11.4312 35.0801 11.4653 34.917 11.5154 34.7727C11.5655 34.6285 11.6316 34.5056 11.7135 34.4038C11.797 34.3006 11.898 34.2224 12.0164 34.1693C12.1348 34.1147 12.2714 34.0873 12.4263 34.0873C12.5811 34.0873 12.7185 34.1177 12.8384 34.1784C12.9583 34.2376 13.0593 34.3226 13.1413 34.4334C13.2233 34.5443 13.2847 34.6771 13.3257 34.8319C13.3682 34.9853 13.3895 35.156 13.3895 35.3443ZM12.9659 35.3921V35.3443C12.9659 35.2213 12.953 35.106 12.9272 34.9982C12.9014 34.8889 12.8612 34.7932 12.8065 34.7113C12.7534 34.6278 12.6851 34.5625 12.6016 34.5154C12.5181 34.4668 12.4187 34.4426 12.3033 34.4426C12.197 34.4426 12.1044 34.4608 12.0255 34.4972C11.9481 34.5336 11.882 34.583 11.8274 34.6452C11.7727 34.7059 11.728 34.7758 11.693 34.8547C11.6596 34.9321 11.6346 35.0126 11.6179 35.0961V35.6859C11.6483 35.7921 11.6908 35.8923 11.7454 35.9864C11.8001 36.079 11.8729 36.1542 11.964 36.2119C12.0551 36.268 12.1697 36.2961 12.3079 36.2961C12.4217 36.2961 12.5196 36.2726 12.6016 36.2255C12.6851 36.1769 12.7534 36.1109 12.8065 36.0274C12.8612 35.9439 12.9014 35.8483 12.9272 35.7405C12.953 35.6312 12.9659 35.5151 12.9659 35.3921ZM14.4314 34.52V36.5967H14.0102V34.1329H14.42L14.4314 34.52ZM15.2011 34.1192L15.1988 34.5109C15.1639 34.5033 15.1305 34.4987 15.0986 34.4972C15.0682 34.4942 15.0333 34.4927 14.9939 34.4927C14.8967 34.4927 14.8109 34.5078 14.7365 34.5382C14.6622 34.5686 14.5992 34.6111 14.5475 34.6657C14.4959 34.7204 14.4549 34.7856 14.4246 34.8615C14.3957 34.9359 14.3768 35.0179 14.3677 35.1075L14.2492 35.1758C14.2492 35.027 14.2637 34.8873 14.2925 34.7568C14.3229 34.6262 14.3692 34.5109 14.4314 34.4107C14.4937 34.309 14.5726 34.23 14.6682 34.1739C14.7654 34.1162 14.8808 34.0873 15.0144 34.0873C15.0447 34.0873 15.0796 34.0911 15.1191 34.0987C15.1586 34.1048 15.1859 34.1116 15.2011 34.1192ZM16.6506 36.6422C16.4791 36.6422 16.3235 36.6134 16.1838 36.5557C16.0457 36.4965 15.9265 36.4138 15.8263 36.3075C15.7276 36.2012 15.6517 36.0752 15.5986 35.9295C15.5455 35.7838 15.5189 35.6244 15.5189 35.4513V35.3557C15.5189 35.1553 15.5485 34.9769 15.6077 34.8206C15.6669 34.6627 15.7474 34.5291 15.8491 34.4198C15.9508 34.3105 16.0662 34.2278 16.1952 34.1716C16.3242 34.1154 16.4578 34.0873 16.596 34.0873C16.7721 34.0873 16.9239 34.1177 17.0514 34.1784C17.1804 34.2391 17.2859 34.3241 17.3679 34.4334C17.4499 34.5412 17.5106 34.6687 17.5501 34.816C17.5895 34.9617 17.6093 35.1211 17.6093 35.2942V35.4832H15.7694V35.1393H17.188V35.1075C17.1819 34.9982 17.1592 34.8919 17.1197 34.7887C17.0817 34.6854 17.021 34.6004 16.9375 34.5336C16.854 34.4668 16.7402 34.4334 16.596 34.4334C16.5003 34.4334 16.4123 34.4539 16.3318 34.4949C16.2514 34.5344 16.1823 34.5936 16.1246 34.6725C16.0669 34.7515 16.0221 34.8479 15.9903 34.9617C15.9584 35.0756 15.9424 35.2069 15.9424 35.3557V35.4513C15.9424 35.5682 15.9584 35.6783 15.9903 35.7815C16.0236 35.8832 16.0715 35.9728 16.1337 36.0502C16.1975 36.1276 16.2741 36.1883 16.3637 36.2324C16.4548 36.2764 16.558 36.2984 16.6734 36.2984C16.8222 36.2984 16.9482 36.268 17.0514 36.2073C17.1546 36.1466 17.2449 36.0654 17.3224 35.9637L17.5774 36.1663C17.5243 36.2468 17.4567 36.3234 17.3747 36.3963C17.2928 36.4692 17.1918 36.5284 17.0719 36.5739C16.9535 36.6195 16.813 36.6422 16.6506 36.6422ZM19.619 35.9432C19.619 35.8824 19.6053 35.8263 19.578 35.7747C19.5522 35.7215 19.4983 35.6737 19.4163 35.6312C19.3359 35.5872 19.2144 35.5492 19.052 35.5173C18.9153 35.4885 18.7916 35.4543 18.6808 35.4149C18.5715 35.3754 18.4781 35.3276 18.4007 35.2714C18.3248 35.2153 18.2664 35.1492 18.2254 35.0733C18.1844 34.9974 18.1639 34.9086 18.1639 34.8069C18.1639 34.7097 18.1852 34.6179 18.2277 34.5314C18.2717 34.4448 18.3332 34.3682 18.4121 34.3014C18.4926 34.2346 18.589 34.1822 18.7013 34.1443C18.8136 34.1063 18.9389 34.0873 19.077 34.0873C19.2744 34.0873 19.4429 34.1222 19.5825 34.1921C19.7222 34.2619 19.8292 34.3553 19.9036 34.4722C19.978 34.5875 20.0152 34.7158 20.0152 34.857H19.5939C19.5939 34.7887 19.5734 34.7226 19.5324 34.6589C19.493 34.5936 19.4345 34.5397 19.3571 34.4972C19.2812 34.4547 19.1878 34.4334 19.077 34.4334C18.9601 34.4334 18.8653 34.4517 18.7924 34.4881C18.721 34.523 18.6687 34.5678 18.6353 34.6224C18.6034 34.6771 18.5874 34.7348 18.5874 34.7955C18.5874 34.841 18.595 34.882 18.6102 34.9185C18.6269 34.9534 18.6558 34.986 18.6967 35.0164C18.7377 35.0452 18.7954 35.0726 18.8698 35.0984C18.9442 35.1242 19.0391 35.15 19.1544 35.1758C19.3563 35.2213 19.5226 35.276 19.6531 35.3397C19.7837 35.4035 19.8808 35.4817 19.9446 35.5743C20.0084 35.6669 20.0402 35.7792 20.0402 35.9113C20.0402 36.0191 20.0175 36.1177 19.9719 36.2073C19.9279 36.2969 19.8634 36.3743 19.7784 36.4396C19.6949 36.5033 19.5947 36.5534 19.4778 36.5899C19.3624 36.6248 19.2326 36.6422 19.0884 36.6422C18.8713 36.6422 18.6876 36.6035 18.5373 36.5261C18.3871 36.4487 18.2732 36.3485 18.1958 36.2255C18.1184 36.1026 18.0797 35.9728 18.0797 35.8361H18.5032C18.5093 35.9515 18.5427 36.0434 18.6034 36.1117C18.6641 36.1785 18.7385 36.2263 18.8265 36.2551C18.9146 36.2825 19.0019 36.2961 19.0884 36.2961C19.2038 36.2961 19.3002 36.2809 19.3776 36.2506C19.4565 36.2202 19.5165 36.1785 19.5575 36.1253C19.5985 36.0722 19.619 36.0115 19.619 35.9432ZM22.1296 36.1754V34.9071C22.1296 34.8099 22.1099 34.7257 22.0704 34.6543C22.0325 34.5815 21.9748 34.5253 21.8974 34.4858C21.8199 34.4464 21.7243 34.4266 21.6105 34.4266C21.5042 34.4266 21.4108 34.4448 21.3304 34.4813C21.2514 34.5177 21.1892 34.5655 21.1436 34.6247C21.0996 34.6839 21.0776 34.7477 21.0776 34.816H20.6564C20.6564 34.728 20.6791 34.6407 20.7247 34.5541C20.7702 34.4676 20.8355 34.3894 20.9205 34.3196C21.007 34.2482 21.1103 34.1921 21.2302 34.1511C21.3516 34.1086 21.4867 34.0873 21.6355 34.0873C21.8146 34.0873 21.9725 34.1177 22.1091 34.1784C22.2473 34.2391 22.3551 34.331 22.4325 34.4539C22.5114 34.5754 22.5509 34.728 22.5509 34.9116V36.0593C22.5509 36.1413 22.5577 36.2286 22.5714 36.3212C22.5866 36.4138 22.6086 36.4935 22.6374 36.5603V36.5967H22.1979C22.1767 36.5481 22.16 36.4836 22.1478 36.4031C22.1357 36.3212 22.1296 36.2453 22.1296 36.1754ZM22.2025 35.1029L22.2071 35.3989H21.7812C21.6613 35.3989 21.5543 35.4088 21.4602 35.4285C21.366 35.4468 21.2871 35.4748 21.2233 35.5128C21.1596 35.5507 21.111 35.5986 21.0776 35.6562C21.0442 35.7124 21.0275 35.7785 21.0275 35.8544C21.0275 35.9318 21.045 36.0024 21.0799 36.0661C21.1148 36.1299 21.1672 36.1807 21.237 36.2187C21.3084 36.2551 21.3956 36.2733 21.4989 36.2733C21.6279 36.2733 21.7418 36.246 21.8404 36.1914C21.9391 36.1367 22.0173 36.0699 22.075 35.991C22.1342 35.912 22.1661 35.8354 22.1706 35.761L22.3505 35.9637C22.3399 36.0274 22.311 36.098 22.264 36.1754C22.2169 36.2528 22.1539 36.3272 22.075 36.3986C21.9976 36.4684 21.905 36.5269 21.7972 36.5739C21.6909 36.6195 21.571 36.6422 21.4374 36.6422C21.2704 36.6422 21.1239 36.6096 20.9979 36.5443C20.8734 36.479 20.7763 36.3918 20.7064 36.2825C20.6381 36.1716 20.604 36.0479 20.604 35.9113C20.604 35.7792 20.6298 35.6631 20.6814 35.5629C20.733 35.4612 20.8074 35.3769 20.9046 35.3101C21.0017 35.2418 21.1186 35.1902 21.2552 35.1553C21.3919 35.1204 21.5444 35.1029 21.7129 35.1029H22.2025Z" fill="#D9D9D9"/>
</svg>
