<svg width="19" height="19" viewBox="0 0 19 19" fill="none" xmlns="http://www.w3.org/2000/svg">
<g clip-path="url(#clip0_711_8917)">
<path d="M6.91614 6.91025H10.4487V8.51881C10.4975 8.49374 10.5214 8.48966 10.5301 8.47567C11.318 7.20584 12.4967 6.65372 13.9516 6.6199C14.7656 6.60125 15.5617 6.70327 16.3066 7.06009C17.2718 7.52242 17.8126 8.32583 18.1127 9.32222C18.354 10.1233 18.4371 10.9489 18.443 11.7785C18.4587 14.0774 18.4523 16.3768 18.4546 18.6763C18.4546 18.7112 18.4499 18.7468 18.4464 18.7969H14.7482C14.7482 18.7194 14.7482 18.636 14.7482 18.5521C14.7476 16.6019 14.7534 14.6522 14.7406 12.702C14.7377 12.2607 14.7028 11.8129 14.6232 11.3797C14.3981 10.1548 13.6027 9.74374 12.4699 9.87667C11.4349 9.99794 10.8644 10.6037 10.7028 11.7243C10.6441 12.133 10.6173 12.5498 10.6156 12.9626C10.6063 14.8254 10.6115 16.6881 10.6115 18.5509C10.6115 18.6378 10.6115 18.7241 10.6115 18.8273H6.91672V6.91025H6.91614Z" fill="#283252"/>
<path d="M0.897751 6.91373H4.57391V18.8272H0.897751V6.91373Z" fill="#283252"/>
<path d="M4.86984 3.09228C4.87857 4.27699 3.91795 5.26172 2.74625 5.26988C1.56758 5.27746 0.585445 4.29565 0.583119 3.10569C0.580793 1.93615 1.53967 0.967746 2.71136 0.954919C3.89178 0.942676 4.86054 1.90175 4.86984 3.09228Z" fill="#283252"/>
</g>
<defs>
<clipPath id="clip0_711_8917">
<rect width="17.8714" height="17.8714" fill="white" transform="translate(0.583115 0.955231)"/>
</clipPath>
</defs>
</svg>
