<svg width="21" height="21" viewBox="0 0 21 21" fill="none" xmlns="http://www.w3.org/2000/svg">
<g clip-path="url(#clip0_711_8913)">
<path d="M13.6007 21H7.55943C7.43664 20.9894 7.31386 20.9716 7.19107 20.9685C6.38727 20.9479 5.58505 20.9159 4.79929 20.722C3.14776 20.3141 1.91794 19.3688 1.18593 17.8101C0.727739 16.834 0.591615 15.7848 0.580631 14.7198C0.558663 12.5495 0.533949 10.3792 0.551994 8.20928C0.559448 7.28485 0.613976 6.35292 0.748531 5.43994C0.956443 4.02625 1.63471 2.85304 2.78372 1.98626C3.76875 1.24348 4.90874 0.948108 6.11424 0.862417C6.59558 0.828062 7.0777 0.808318 7.55943 0.78186C9.5601 0.78186 11.5608 0.78186 13.5614 0.78186C14.0298 0.807923 14.4986 0.832801 14.967 0.860838C15.7869 0.909804 16.5899 1.05196 17.3423 1.39235C19.1888 2.22833 20.1613 3.71745 20.4637 5.69188C20.5171 6.04056 20.5442 6.39359 20.5834 6.74464V14.8793C20.5724 14.95 20.5587 15.0199 20.5512 15.091C20.5088 15.4886 20.4888 15.8902 20.4225 16.2839C20.2091 17.5527 19.6709 18.6528 18.7031 19.5168C17.6542 20.4535 16.3914 20.8271 15.0247 20.9203C14.5504 20.9527 14.0753 20.9736 13.6007 21ZM10.582 19.2136C10.582 19.2033 10.5824 19.1926 10.5828 19.1824C11.1124 19.1824 11.6424 19.1982 12.1712 19.1792C13.3068 19.1382 14.448 19.1378 15.5754 19.0138C17.1112 18.8444 18.2104 17.8485 18.5568 16.3617C18.7016 15.7402 18.7565 15.087 18.7687 14.4465C18.8051 12.5716 18.8177 10.6959 18.8032 8.82056C18.7957 7.84203 18.7643 6.85758 18.6502 5.88695C18.4588 4.26318 17.4412 3.15987 15.8532 2.84198C15.16 2.70338 14.4398 2.65994 13.7305 2.64967C11.8483 2.62203 9.96494 2.61848 8.08274 2.64059C7.20912 2.65086 6.32804 2.68284 5.46579 2.81C3.93508 3.03548 2.89395 4.03849 2.58326 5.56314C2.4491 6.22181 2.40398 6.90615 2.38986 7.58062C2.35534 9.20558 2.34279 10.8317 2.36044 12.4567C2.37299 13.5936 2.40163 14.7344 2.51147 15.8649C2.62327 17.0145 3.16777 17.9515 4.18693 18.5502C4.82087 18.9225 5.52581 19.0766 6.24997 19.1022C7.69359 19.1532 9.138 19.1784 10.582 19.2144V19.2136Z" fill="#283252"/>
<path d="M5.4173 10.8882C5.42162 8.02014 7.74435 5.68991 10.5869 5.70137C13.4447 5.71321 15.7525 8.0466 15.7349 10.9068C15.7172 13.778 13.416 16.0892 10.5778 16.0865C7.72905 16.0837 5.41299 13.7503 5.4173 10.8878V10.8882ZM10.5586 14.2574C12.4118 14.2668 13.908 12.7801 13.9205 10.9166C13.9331 9.05198 12.4569 7.54233 10.6065 7.52772C8.74626 7.51271 7.2434 9.00578 7.23477 10.8783C7.22575 12.7406 8.7082 14.2479 10.5586 14.2574Z" fill="#283252"/>
<path d="M17.1413 5.50272C17.1369 6.17837 16.596 6.71225 15.9224 6.70475C15.2661 6.69725 14.735 6.15033 14.7381 5.48455C14.7416 4.81877 15.2763 4.28528 15.9401 4.28568C16.6152 4.28568 17.1452 4.82312 17.1413 5.50272Z" fill="#283252"/>
</g>
<defs>
<clipPath id="clip0_711_8913">
<rect width="20.0377" height="20.2182" fill="white" transform="translate(0.545456 0.78186)"/>
</clipPath>
</defs>
</svg>
