<svg width="41" height="27" viewBox="0 0 41 27" fill="none" xmlns="http://www.w3.org/2000/svg">
<g clip-path="url(#clip0_711_8904)">
<path d="M11.1205 26.7819L0.5 0.362305H5.48881L13.7295 20.3713L11.1205 26.7837V26.7819Z" fill="#283252"/>
<path d="M21.775 0.362305H26.7638L37.3842 26.7819H32.3954L24.2694 7.05225L16.1433 26.7819H11.1545L21.775 0.362305Z" fill="#009FB4"/>
<path d="M32.4688 2.25505C32.621 2.01868 32.7696 1.7841 32.9183 1.55311C33.0669 1.32211 33.2137 1.08932 33.3624 0.856535H32.1465V0.512726H33.9569C33.8082 0.73835 33.6614 0.963975 33.5164 1.18781C33.3695 1.41164 33.2209 1.63548 33.0687 1.85752C33.2012 1.88796 33.3265 1.93452 33.4429 2.00256C33.5593 2.06882 33.6596 2.15119 33.7456 2.24968C33.8297 2.34816 33.8978 2.45918 33.9461 2.58274C33.9945 2.7063 34.0177 2.8406 34.0177 2.98564C34.0177 3.14859 33.9855 3.3008 33.9228 3.44405C33.8602 3.58731 33.7742 3.71086 33.6668 3.8183C33.5593 3.92574 33.434 4.00991 33.2889 4.07437C33.1439 4.13883 32.9917 4.16928 32.8287 4.16928C32.655 4.16928 32.4921 4.13525 32.3435 4.06721C32.193 3.99916 32.0641 3.90605 31.9585 3.78607C31.9997 3.74489 32.0408 3.70549 32.0856 3.66431C32.1304 3.62312 32.1733 3.58373 32.2127 3.54254C32.2862 3.62849 32.3757 3.69654 32.4796 3.75026C32.5834 3.80398 32.698 3.83084 32.8234 3.83084C32.938 3.83084 33.0472 3.80935 33.1511 3.76458C33.2549 3.71982 33.3444 3.65893 33.4232 3.58194C33.5002 3.50494 33.5611 3.4154 33.6059 3.31333C33.6507 3.21127 33.6721 3.10383 33.6721 2.98922C33.6721 2.87462 33.6507 2.76718 33.6059 2.66511C33.5611 2.56304 33.5002 2.4753 33.4232 2.40188C33.3462 2.32847 33.2549 2.26937 33.1511 2.22461C33.0472 2.17984 32.938 2.15835 32.8234 2.15835C32.698 2.15835 32.5798 2.19417 32.4688 2.264V2.25505Z" fill="#009FB4"/>
<path d="M34.7054 3.0322C34.7054 2.76539 34.7627 2.51648 34.8755 2.28549C34.9883 2.05449 35.1333 1.83782 35.3106 1.63905C35.4879 1.4385 35.6867 1.25227 35.9051 1.07857C36.1236 0.90488 36.3367 0.741929 36.5444 0.589722C36.582 0.634488 36.6178 0.679255 36.6518 0.725813C36.6876 0.77237 36.7235 0.817137 36.7593 0.861904C36.4441 1.0732 36.188 1.27197 35.9911 1.4582C35.7923 1.64443 35.6401 1.81096 35.5327 1.95421C35.5774 1.91303 35.6294 1.8808 35.6902 1.85394C35.7511 1.82887 35.8174 1.81454 35.8872 1.81454C36.0502 1.81454 36.2042 1.84498 36.3474 1.90586C36.4925 1.96675 36.6178 2.05091 36.7253 2.15477C36.8327 2.25863 36.9169 2.38397 36.9813 2.52723C37.044 2.67048 37.0762 2.82269 37.0762 2.98564C37.0762 3.14859 37.044 3.3008 36.9813 3.44405C36.9186 3.5873 36.8327 3.71086 36.7253 3.81651C36.6178 3.92216 36.4925 4.00632 36.3474 4.06899C36.2024 4.13167 36.0502 4.1639 35.8872 4.1639C35.7243 4.1639 35.5774 4.13346 35.4342 4.07437C35.2909 4.01527 35.1674 3.93469 35.0617 3.83263C34.9561 3.73056 34.8719 3.61058 34.8057 3.4727C34.7412 3.33303 34.7072 3.18619 34.7036 3.0322H34.7054ZM35.0599 2.98743C35.0599 3.10203 35.0814 3.21126 35.1244 3.31154C35.1674 3.41182 35.2247 3.50135 35.2999 3.57835C35.3733 3.65356 35.461 3.71444 35.5613 3.75921C35.6616 3.80398 35.769 3.82546 35.8836 3.82546C35.9982 3.82546 36.1075 3.80398 36.2113 3.75921C36.3152 3.71444 36.4047 3.65535 36.4835 3.57835C36.5605 3.50314 36.6214 3.41361 36.6662 3.31154C36.7109 3.20947 36.7324 3.10203 36.7324 2.98743C36.7324 2.87283 36.7109 2.7636 36.6662 2.66332C36.6214 2.56304 36.5605 2.47351 36.4835 2.40009C36.4065 2.32667 36.3152 2.26758 36.2113 2.22281C36.1075 2.17805 35.9982 2.15656 35.8836 2.15656C35.769 2.15656 35.6616 2.17805 35.5613 2.22281C35.461 2.26758 35.3751 2.32667 35.2999 2.40009C35.2247 2.47351 35.1674 2.56125 35.1244 2.66332C35.0814 2.76539 35.0599 2.87283 35.0599 2.98743Z" fill="#009FB4"/>
<path d="M37.5257 2.30518C37.5257 2.05449 37.5615 1.81633 37.6313 1.5925C37.7012 1.36866 37.8032 1.17348 37.934 1.00695C38.0647 0.840416 38.2222 0.709697 38.4049 0.613001C38.5875 0.516305 38.7935 0.467957 39.0245 0.467957C39.2555 0.467957 39.4596 0.518095 39.644 0.618373C39.8267 0.71865 39.9825 0.852951 40.1096 1.02306C40.2368 1.19318 40.3352 1.39015 40.4015 1.61399C40.4678 1.83782 40.5018 2.07598 40.5018 2.32667C40.5018 2.60065 40.4588 2.84955 40.3746 3.07696C40.2905 3.30438 40.1777 3.49598 40.038 3.65714C39.8983 3.8183 39.7389 3.94365 39.5581 4.03139C39.3772 4.12092 39.1892 4.1639 38.9976 4.1639C38.806 4.1639 38.6198 4.11734 38.4425 4.02423C38.2652 3.93111 38.1076 3.80398 37.9716 3.64102C37.8355 3.47807 37.7262 3.28289 37.6474 3.05548C37.5687 2.82806 37.5275 2.57737 37.5275 2.30339L37.5257 2.30518ZM37.8749 2.30518C37.8749 2.52365 37.9053 2.72599 37.9644 2.91043C38.0235 3.09487 38.1059 3.25603 38.2079 3.39033C38.3118 3.52463 38.4318 3.63207 38.5678 3.70907C38.7039 3.78607 38.849 3.82546 39.0012 3.82546C39.1534 3.82546 39.2931 3.78786 39.431 3.71444C39.5688 3.64102 39.6924 3.53717 39.798 3.40287C39.9037 3.26856 39.9879 3.11099 40.0541 2.92476C40.1186 2.74032 40.1508 2.53797 40.1508 2.31951C40.1508 2.14581 40.1293 1.96854 40.0845 1.78947C40.0398 1.6104 39.9699 1.44745 39.8768 1.30062C39.7837 1.15378 39.6655 1.0356 39.5241 0.942484C39.3826 0.849369 39.2179 0.804603 39.0245 0.804603C38.8311 0.804603 38.6645 0.849369 38.5195 0.937112C38.3745 1.02665 38.2563 1.14304 38.1614 1.28629C38.0665 1.43134 37.9966 1.5925 37.9483 1.77156C37.8999 1.95063 37.8767 2.12791 37.8767 2.3016L37.8749 2.30518Z" fill="#009FB4"/>
</g>
<defs>
<clipPath id="clip0_711_8904">
<rect width="40" height="26.4196" fill="white" transform="translate(0.5 0.362305)"/>
</clipPath>
</defs>
</svg>
